<svg xmlns="http://www.w3.org/2000/svg" viewBox="0 0 1920 1080"><defs><clipPath id="clip-path"><path id="SVGID" d="M217.412 345.53l-55.284-73.715s-12.536 115.13-13.67 117.847c-1.137 2.714 68.954-44.132 68.954-44.132z" fill="none"/></clipPath><style>.cls-3{fill:#58c7b5;mix-blend-mode:overlay}.cls-6{fill:#fff}.cls-7{fill:#e63d31}.cls-10{fill:#808083}.cls-12{fill:#e73c31}.cls-13{fill:#f3bb48}.cls-24{opacity:.2}.cls-17,.cls-24{mix-blend-mode:multiply}.cls-16{fill:#414042}.cls-17{opacity:.4}.cls-18{fill:#ffde17}.cls-21{fill:#27564d}.cls-22{fill:#f1f0d9}.cls-23{fill:#463f37}.cls-24{fill:#231f20}</style></defs><g style="isolation:isolate"><g id="Layer_1" data-name="Layer 1"><path class="cls-3" d="M113.019 1010.197c12.794 0 18.624-13.965 23.756-26.273 4.26-10.215 8.67-20.779 15.51-20.779 6.826 0 11.223 10.564 15.484 20.78 5.132 12.307 10.95 26.272 23.719 26.272s18.586-13.965 23.718-26.273c4.26-10.215 8.658-20.779 15.485-20.779 6.814 0 11.211 10.552 15.46 20.767 5.132 12.32 10.937 26.285 23.718 26.285 12.769 0 18.574-13.965 23.694-26.285 4.248-10.215 8.645-20.767 15.447-20.767a4.472 4.472 0 100-8.944c-12.769 0-18.574 13.965-23.694 26.285-4.248 10.215-8.645 20.766-15.447 20.766-6.814 0-11.224-10.564-15.472-20.779-5.12-12.307-10.938-26.272-23.706-26.272-12.781 0-18.599 13.965-23.731 26.285-4.26 10.215-8.658 20.766-15.472 20.766s-11.212-10.551-15.472-20.766c-5.133-12.32-10.95-26.285-23.732-26.285-12.793 0-18.623 13.965-23.756 26.272-4.26 10.215-8.67 20.78-15.51 20.78s-11.248-10.565-15.508-20.78c-5.133-12.307-10.963-26.272-23.757-26.272a4.472 4.472 0 000 8.944c6.84 0 11.25 10.564 15.51 20.78 5.132 12.307 10.962 26.272 23.756 26.272zM1519.579 815.551c10.46 0 15.226-11.416 19.422-21.479 3.483-8.35 7.088-16.987 12.68-16.987 5.58 0 9.175 8.636 12.659 16.987 4.196 10.063 8.952 21.48 19.39 21.48s15.196-11.417 19.392-21.48c3.483-8.35 7.078-16.987 12.66-16.987 5.57 0 9.165 8.626 12.638 16.977 4.196 10.073 8.942 21.49 19.391 21.49 10.44 0 15.185-11.417 19.371-21.49 3.473-8.351 7.068-16.977 12.629-16.977a3.656 3.656 0 100-7.313c-10.44 0-15.185 11.417-19.37 21.49-3.474 8.35-7.069 16.977-12.63 16.977-5.57 0-9.176-8.636-12.649-16.988-4.186-10.062-8.942-21.479-19.38-21.479-10.45 0-15.206 11.417-19.402 21.49-3.483 8.35-7.078 16.977-12.65 16.977s-9.165-8.626-12.648-16.978c-4.196-10.072-8.952-21.489-19.402-21.489-10.46 0-15.226 11.417-19.422 21.48-3.483 8.35-7.088 16.987-12.68 16.987s-9.196-8.636-12.679-16.988c-4.196-10.062-8.962-21.479-19.422-21.479a3.656 3.656 0 000 7.313c5.592 0 9.197 8.636 12.68 16.987 4.196 10.063 8.962 21.48 19.422 21.48zM187.676 748.509c9.4 0 13.684-10.26 17.454-19.303 3.13-7.505 6.37-15.266 11.395-15.266 5.016 0 8.247 7.76 11.377 15.266 3.77 9.043 8.045 19.303 17.426 19.303s13.656-10.26 17.427-19.303c3.13-7.505 6.36-15.266 11.377-15.266 5.006 0 8.237 7.752 11.358 15.257 3.77 9.052 8.036 19.312 17.426 19.312 9.382 0 13.647-10.26 17.409-19.312 3.12-7.505 6.351-15.257 11.349-15.257a3.286 3.286 0 100-6.572c-9.382 0-13.647 10.26-17.408 19.312-3.121 7.505-6.352 15.257-11.35 15.257-5.006 0-8.246-7.761-11.367-15.266-3.762-9.043-8.036-19.303-17.417-19.303-9.391 0-13.665 10.26-17.436 19.312-3.13 7.505-6.361 15.257-11.368 15.257s-8.237-7.752-11.367-15.257c-3.77-9.052-8.045-19.312-17.436-19.312-9.4 0-13.683 10.26-17.454 19.303-3.13 7.505-6.37 15.266-11.395 15.266s-8.264-7.761-11.395-15.266c-3.77-9.043-8.054-19.303-17.453-19.303a3.286 3.286 0 000 6.572c5.024 0 8.264 7.76 11.395 15.266 3.77 9.043 8.054 19.303 17.453 19.303zM1380.374 1023.34c9.4 0 13.683-10.26 17.454-19.303 3.13-7.505 6.37-15.267 11.395-15.267 5.016 0 8.246 7.762 11.377 15.267 3.77 9.043 8.045 19.303 17.426 19.303s13.656-10.26 17.427-19.303c3.13-7.505 6.36-15.267 11.376-15.267 5.007 0 8.238 7.753 11.359 15.258 3.77 9.052 8.036 19.312 17.426 19.312 9.381 0 13.647-10.26 17.408-19.312 3.121-7.505 6.352-15.258 11.35-15.258a3.286 3.286 0 000-6.571c-9.382 0-13.647 10.26-17.409 19.312-3.12 7.505-6.352 15.257-11.349 15.257-5.006 0-8.246-7.761-11.367-15.266-3.762-9.043-8.036-19.303-17.418-19.303-9.39 0-13.665 10.26-17.435 19.312-3.13 7.505-6.361 15.257-11.368 15.257s-8.237-7.752-11.367-15.257c-3.771-9.052-8.045-19.312-17.436-19.312-9.4 0-13.683 10.26-17.454 19.303-3.13 7.505-6.37 15.266-11.395 15.266s-8.265-7.761-11.395-15.266c-3.77-9.043-8.054-19.303-17.454-19.303a3.286 3.286 0 000 6.571c5.025 0 8.265 7.762 11.395 15.267 3.771 9.043 8.054 19.303 17.454 19.303zM1727.765 955.058c9.4 0 13.683-10.26 17.454-19.303 3.13-7.505 6.37-15.266 11.395-15.266 5.016 0 8.246 7.761 11.377 15.266 3.77 9.043 8.045 19.303 17.426 19.303s13.656-10.26 17.427-19.303c3.13-7.505 6.36-15.266 11.376-15.266 5.007 0 8.237 7.752 11.358 15.257 3.771 9.052 8.036 19.312 17.427 19.312 9.381 0 13.646-10.26 17.408-19.312 3.121-7.505 6.352-15.257 11.35-15.257a3.286 3.286 0 000-6.572c-9.382 0-13.647 10.26-17.409 19.312-3.12 7.505-6.352 15.257-11.349 15.257-5.006 0-8.246-7.761-11.368-15.266-3.761-9.043-8.035-19.303-17.417-19.303-9.39 0-13.665 10.26-17.435 19.312-3.13 7.505-6.361 15.257-11.368 15.257s-8.237-7.752-11.367-15.257c-3.771-9.052-8.046-19.312-17.436-19.312-9.4 0-13.683 10.26-17.454 19.303-3.13 7.505-6.37 15.266-11.395 15.266s-8.265-7.761-11.395-15.266c-3.77-9.043-8.054-19.303-17.454-19.303a3.286 3.286 0 000 6.572c5.025 0 8.265 7.761 11.395 15.266 3.771 9.043 8.054 19.303 17.454 19.303zM438.505 906.31c9.4 0 13.683-10.26 17.454-19.302 3.13-7.505 6.37-15.266 11.395-15.266 5.015 0 8.246 7.761 11.377 15.266 3.77 9.043 8.045 19.303 17.426 19.303s13.656-10.26 17.426-19.303c3.13-7.505 6.361-15.266 11.377-15.266 5.007 0 8.237 7.752 11.358 15.257 3.771 9.052 8.036 19.312 17.427 19.312 9.381 0 13.646-10.26 17.408-19.312 3.121-7.505 6.352-15.257 11.35-15.257a3.286 3.286 0 000-6.572c-9.382 0-13.647 10.26-17.409 19.312-3.12 7.505-6.352 15.257-11.35 15.257-5.006 0-8.246-7.761-11.367-15.266-3.761-9.043-8.036-19.303-17.417-19.303-9.39 0-13.665 10.26-17.436 19.312-3.13 7.505-6.36 15.257-11.367 15.257s-8.237-7.752-11.367-15.257c-3.771-9.052-8.046-19.312-17.436-19.312-9.4 0-13.683 10.26-17.454 19.303-3.13 7.505-6.37 15.266-11.395 15.266s-8.265-7.761-11.395-15.266c-3.77-9.043-8.054-19.303-17.454-19.303a3.286 3.286 0 000 6.572c5.025 0 8.265 7.761 11.395 15.266 3.771 9.043 8.054 19.303 17.454 19.303zM1676.63 341.01c9.4 0 13.683-10.26 17.453-19.302 3.13-7.505 6.37-15.267 11.395-15.267 5.016 0 8.247 7.762 11.377 15.267 3.77 9.042 8.045 19.303 17.426 19.303s13.656-10.26 17.427-19.303c3.13-7.505 6.36-15.267 11.377-15.267 5.006 0 8.237 7.753 11.358 15.258 3.77 9.051 8.036 19.312 17.426 19.312 9.382 0 13.647-10.26 17.409-19.312 3.12-7.505 6.351-15.258 11.349-15.258a3.286 3.286 0 000-6.571c-9.382 0-13.647 10.26-17.408 19.312-3.121 7.505-6.352 15.257-11.35 15.257-5.006 0-8.246-7.761-11.367-15.266-3.762-9.043-8.036-19.303-17.417-19.303-9.391 0-13.665 10.26-17.436 19.312-3.13 7.505-6.361 15.257-11.368 15.257s-8.237-7.752-11.367-15.257c-3.77-9.052-8.045-19.312-17.436-19.312-9.4 0-13.683 10.26-17.454 19.303-3.13 7.505-6.37 15.266-11.395 15.266s-8.264-7.761-11.394-15.266c-3.771-9.043-8.055-19.303-17.454-19.303a3.286 3.286 0 000 6.571c5.024 0 8.264 7.762 11.395 15.267 3.77 9.042 8.054 19.303 17.453 19.303zM1358.653 185.647c7.111 0 10.352-7.762 13.204-14.603 2.368-5.678 4.82-11.55 8.62-11.55 3.795 0 6.24 5.872 8.607 11.55 2.853 6.84 6.086 14.603 13.184 14.603s10.33-7.762 13.183-14.603c2.368-5.678 4.812-11.55 8.606-11.55 3.788 0 6.232 5.865 8.593 11.543 2.853 6.848 6.08 14.61 13.183 14.61 7.097 0 10.324-7.762 13.17-14.61 2.36-5.678 4.805-11.542 8.586-11.542a2.486 2.486 0 100-4.972c-7.098 0-10.324 7.762-13.17 14.61-2.36 5.678-4.805 11.542-8.586 11.542-3.787 0-6.238-5.871-8.6-11.549-2.845-6.84-6.079-14.603-13.176-14.603-7.104 0-10.337 7.762-13.19 14.61-2.368 5.678-4.812 11.542-8.6 11.542s-6.231-5.864-8.599-11.542c-2.853-6.848-6.086-14.61-13.19-14.61-7.111 0-10.352 7.762-13.204 14.603-2.368 5.678-4.82 11.55-8.62 11.55s-6.253-5.872-8.621-11.55c-2.853-6.84-6.093-14.603-13.204-14.603a2.486 2.486 0 100 4.972c3.801 0 6.252 5.871 8.62 11.549 2.853 6.84 6.093 14.603 13.204 14.603zM628.924 86.909c7.111 0 10.351-7.762 13.204-14.603 2.368-5.678 4.82-11.55 8.62-11.55 3.795 0 6.24 5.872 8.607 11.55 2.853 6.841 6.086 14.603 13.183 14.603s10.331-7.762 13.184-14.603c2.368-5.678 4.812-11.55 8.606-11.55 3.788 0 6.232 5.865 8.593 11.543 2.853 6.848 6.08 14.61 13.183 14.61 7.097 0 10.324-7.762 13.17-14.61 2.36-5.678 4.805-11.542 8.585-11.542a2.486 2.486 0 000-4.972c-7.097 0-10.323 7.762-13.17 14.61-2.36 5.678-4.804 11.542-8.585 11.542-3.787 0-6.238-5.871-8.6-11.549-2.845-6.84-6.079-14.603-13.176-14.603-7.104 0-10.337 7.762-13.19 14.61-2.368 5.678-4.812 11.542-8.6 11.542s-6.231-5.864-8.6-11.542c-2.852-6.848-6.085-14.61-13.19-14.61-7.11 0-10.35 7.762-13.204 14.603-2.368 5.678-4.819 11.55-8.62 11.55s-6.252-5.872-8.62-11.55c-2.853-6.84-6.093-14.603-13.204-14.603a2.486 2.486 0 000 4.972c3.8 0 6.252 5.871 8.62 11.55 2.853 6.84 6.093 14.602 13.204 14.602zM1652.075 122.072c7.111 0 10.351-7.762 13.204-14.603 2.368-5.678 4.82-11.55 8.62-11.55 3.795 0 6.239 5.872 8.607 11.55 2.853 6.84 6.086 14.603 13.183 14.603s10.33-7.762 13.184-14.603c2.368-5.678 4.812-11.55 8.606-11.55 3.788 0 6.232 5.865 8.593 11.543 2.852 6.848 6.08 14.61 13.183 14.61 7.097 0 10.324-7.762 13.17-14.61 2.36-5.678 4.805-11.542 8.585-11.542a2.486 2.486 0 000-4.972c-7.097 0-10.323 7.762-13.17 14.61-2.36 5.678-4.804 11.542-8.585 11.542-3.787 0-6.238-5.871-8.6-11.55-2.845-6.84-6.079-14.602-13.176-14.602-7.104 0-10.337 7.762-13.19 14.61-2.368 5.678-4.812 11.542-8.6 11.542s-6.231-5.864-8.6-11.542c-2.852-6.848-6.086-14.61-13.19-14.61-7.11 0-10.35 7.762-13.204 14.603-2.368 5.678-4.819 11.55-8.62 11.55s-6.252-5.872-8.62-11.55c-2.853-6.841-6.093-14.603-13.204-14.603a2.486 2.486 0 000 4.972c3.8 0 6.252 5.871 8.62 11.549 2.853 6.84 6.093 14.603 13.204 14.603zM28.958 567.566c7.111 0 10.352-7.762 13.204-14.603 2.368-5.678 4.82-11.55 8.62-11.55 3.795 0 6.24 5.872 8.607 11.55 2.853 6.84 6.086 14.603 13.183 14.603s10.331-7.762 13.184-14.603c2.368-5.678 4.812-11.55 8.606-11.55 3.788 0 6.232 5.865 8.593 11.543 2.853 6.848 6.08 14.61 13.183 14.61 7.097 0 10.324-7.762 13.17-14.61 2.36-5.678 4.805-11.542 8.585-11.542a2.486 2.486 0 000-4.972c-7.097 0-10.323 7.762-13.169 14.61-2.361 5.678-4.805 11.542-8.586 11.542-3.787 0-6.238-5.871-8.6-11.549-2.845-6.84-6.079-14.603-13.176-14.603-7.104 0-10.337 7.762-13.19 14.61-2.368 5.678-4.812 11.542-8.6 11.542s-6.231-5.864-8.6-11.542c-2.852-6.848-6.085-14.61-13.19-14.61-7.11 0-10.35 7.762-13.203 14.603-2.368 5.678-4.82 11.55-8.62 11.55s-6.253-5.872-8.621-11.55c-2.853-6.84-6.093-14.603-13.204-14.603a2.486 2.486 0 100 4.972c3.801 0 6.252 5.871 8.62 11.549 2.853 6.84 6.093 14.603 13.204 14.603z"/><path d="M517.791 540.01q0 14.607.931 28.97a440.157 440.157 0 0033.83 143.152q6.195 14.607 13.36 28.647a441.198 441.198 0 0035.288 57.758c3.3 4.555 6.66 9.03 10.123 13.443a237.821 237.821 0 004.474 5.648c1.64 2.045 3.3 4.07 5.02 6.074q7.744 9.292 16.075 18.16c.79.89 1.62 1.76 2.43 2.631q3.248 3.401 6.518 6.701c.182.182.364.385.546.567 1.175 1.174 2.349 2.348 3.543 3.502a330.02 330.02 0 004.697 4.555 447.785 447.785 0 0011.62 10.73q2.855 2.551 5.77 5.041c.77.668 1.56 1.316 2.329 1.984 2.49 2.106 4.98 4.19 7.51 6.236 1.499 1.194 2.997 2.389 4.495 3.563 1.032.83 2.065 1.64 3.118 2.43.91.728 1.822 1.416 2.733 2.105a394.435 394.435 0 0012.086 8.907 320.78 320.78 0 003.28 2.288q8.047 5.618 16.378 10.872a439.143 439.143 0 00111.752 50.51c6.215 1.843 12.531 3.523 18.888 5.082a.075.075 0 00.06.02q8.048 1.974 16.217 3.624a401.495 401.495 0 0018.605 3.381q8.048 1.306 16.216 2.308 9.687 1.184 19.476 1.923 8.077.668 16.216.972c6.154.283 12.349.405 18.585.405h.04c5.405 0 10.77-.101 16.135-.304a441.098 441.098 0 00101.73-15.568 446.385 446.385 0 0019.395-5.83 436.93 436.93 0 0066.16-27.777q10.963-5.678 21.541-11.924a445.866 445.866 0 0047.03-32.108 290.46 290.46 0 006.74-5.385h.02a427.494 427.494 0 008.747-7.289q4.008-3.431 7.935-6.964c.486-.425.972-.87 1.458-1.316a272.827 272.827 0 004.333-3.988q1.092-1.002 2.125-2.004a158.013 158.013 0 003.786-3.624c.931-.89 1.862-1.802 2.793-2.713q6.227-6.073 12.168-12.41c.668-.729 1.356-1.437 2.004-2.166q3.523-3.766 6.944-7.633c.527-.587 1.053-1.194 1.58-1.801q1.032-1.154 2.064-2.369 5.193-6.013 10.184-12.228c.647-.79 1.275-1.579 1.903-2.389q5.769-7.258 11.215-14.778c.587-.79 1.154-1.58 1.72-2.39q3.19-4.433 6.236-8.948a294.982 294.982 0 005.244-7.875q4.858-7.47 9.414-15.143a439.549 439.549 0 0043.162-98.491q2.58-8.716 4.838-17.553c0-.02.02-.04.02-.08q4.495-17.735 7.552-36.016a.257.257 0 00.02-.122c.77-4.575 1.458-9.191 2.065-13.807a438.179 438.179 0 003.806-48.669 363.7 363.7 0 00.142-10.527q0-3.644-.061-7.288-.122-7.804-.526-15.548-.669-13.21-2.106-26.177a438.967 438.967 0 00-59.459-177.122q-5.679-9.566-11.863-18.828c-3.867-5.85-7.916-11.58-12.087-17.249q-6.65-9.019-13.746-17.694a408.768 408.768 0 00-8.139-9.656 447.749 447.749 0 00-43.526-43.689q-11.418-9.96-23.524-19.151-7.44-5.649-15.123-10.973-11.236-7.835-22.998-14.961-9.962-6.043-20.245-11.56-8.685-4.676-17.634-8.948a.625.625 0 00-.12-.081c-.022 0-.022-.02-.041-.02a420.158 420.158 0 00-16.581-7.511h-.02a189.937 189.937 0 00-6.317-2.673.02.02 0 00-.02-.02q-6.195-2.55-12.512-4.9c-1.275-.505-2.57-.97-3.866-1.437q-14.03-5.132-28.464-9.312c-1.316-.405-2.632-.75-3.948-1.134a418.109 418.109 0 00-6.762-1.822 207.112 207.112 0 00-3.381-.87c-5.122-1.296-10.264-2.531-15.467-3.644h-.02a166.67 166.67 0 00-3.381-.71 372.502 372.502 0 00-9.475-1.862c-1.457-.263-2.895-.546-4.373-.769h-.02q-20.467-3.614-41.603-5.243c-.263-.02-.506-.04-.749-.061h-.02a427.764 427.764 0 00-19.173-1.033c-2.307-.08-4.595-.141-6.903-.182-2.632-.06-5.284-.08-7.956-.08-1.296 0-2.591 0-3.887.02q-16.186.151-32.088 1.437c-1.397.101-2.774.223-4.15.344-4.333.385-8.645.85-12.917 1.356q-17.248 2.065-34.072 5.446c-.77.142-1.538.284-2.308.466a359.536 359.536 0 00-10.527 2.288q-9.08 2.095-17.998 4.575-10.143 2.763-20.123 6.073A441.598 441.598 0 00638.39 236.52q-6.104 6.468-11.945 13.2a442.118 442.118 0 00-59.236 86.992q-4.889 9.384-9.292 19.03-3.736 8.078-7.107 16.358v.02a191.759 191.759 0 00-1.66 4.07 431.998 431.998 0 00-2.773 7.126v.02c-.263.648-.506 1.316-.749 1.964a433.262 433.262 0 00-6.094 17.45c-.121.325-.223.628-.324.952q-4.464 13.817-8.017 27.979c-.547 2.024-1.032 4.069-1.518 6.134a441.309 441.309 0 00-5.77 28.505q-1.913 11.357-3.219 22.937-.759 6.53-1.296 13.119c-.647 7.349-1.072 14.779-1.336 22.229q-.213 6.286-.242 12.592c-.02.931-.02 1.883-.02 2.814z" style="isolation:isolate" opacity=".2" fill="#fff"/><path d="M1289.625 540.01c0 2.62-.03 5.23-.11 7.84-.03 1.52-.08 3.04-.13 4.56-.07 1.84-.15 3.67-.25 5.49q-.705 13.26-2.46 26.23c-.45 3.44-.96 6.88-1.53 10.29a.149.149 0 01-.02.09q-1.965 11.85-4.77 23.37v.01c-.28 1.16-.57 2.32-.86 3.47 0 .03-.01.04-.01.06q-1.68 6.584-3.61 13.08-2.326 7.784-5.03 15.4a324.43 324.43 0 01-12.5 30.43q-6.675 14.19-14.64 27.59c-2.27 3.82-4.61 7.57-7.02 11.29a230.06 230.06 0 01-3.91 5.87c-1.51 2.25-3.06 4.46-4.65 6.67-.42.6-.84 1.19-1.28 1.78q-4.05 5.594-8.36 11.01c-.47.61-.94 1.2-1.42 1.79-2.47 3.09-5.01 6.12-7.59 9.11-.51.6-1.03 1.19-1.54 1.77-.39.45-.78.9-1.18 1.34q-2.55 2.88-5.17 5.69c-.48.54-1 1.07-1.5 1.61-2.95 3.14-5.97 6.24-9.07 9.25-.69.68-1.38 1.36-2.08 2.03q-1.396 1.38-2.82 2.7c-.51.49-1.04.99-1.58 1.49-1.06 1-2.15 1.99-3.23 2.97-.37.34-.73.67-1.09.98-1.95 1.75-3.92 3.49-5.92 5.2-2.15 1.84-4.31 3.65-6.51 5.43h-.02c-1.66 1.36-3.32 2.7-5.02 4.01q-10.335 8.07-21.32 15.32l-1.47.96q-6.046 3.96-12.27 7.66-7.875 4.65-16.06 8.88-4.59 2.384-9.27 4.63c-.74.37-1.48.72-2.22 1.07h-.01a326.128 326.128 0 01-37.81 15.01c-4.79 1.55-9.59 3-14.46 4.34a325.322 325.322 0 01-32.46 7.2c-1.39.23-2.78.46-4.18.68q-6.66 1.034-13.4 1.81-12.75 1.454-25.79 1.92c-4 .15-8 .23-12.03.23h-.03c-4.65 0-9.26-.09-13.85-.31q-6.075-.226-12.09-.72c-4.86-.36-9.7-.85-14.52-1.43q-6.09-.75-12.08-1.72c-4.67-.74-9.28-1.57-13.87-2.52q-6.09-1.23-12.09-2.71a.09.09 0 01-.05-.01c-1.49-.37-2.99-.74-4.47-1.14-1.97-.51-3.93-1.03-5.88-1.58-1.25-.35-2.49-.7-3.72-1.07-.24-.07-.49-.14-.73-.22a327.336 327.336 0 01-82.58-37.43q-6.196-3.916-12.2-8.1c-.82-.56-1.63-1.13-2.45-1.71-3.05-2.16-6.03-4.36-9.01-6.64-.68-.51-1.36-1.02-2.03-1.57-.79-.59-1.56-1.19-2.33-1.81-1.12-.87-2.23-1.76-3.35-2.65-1.89-1.53-3.74-3.08-5.6-4.65-.57-.5-1.16-.98-1.73-1.48-1.45-1.24-2.89-2.49-4.3-3.76-2.93-2.61-5.83-5.28-8.67-8-1.17-1.11-2.34-2.25-3.5-3.39-.89-.86-1.76-1.74-2.64-2.61-.13-.14-.27-.29-.41-.43-1.63-1.64-3.24-3.3-4.85-4.99-.61-.65-1.23-1.3-1.82-1.96q-6.225-6.616-11.98-13.54c-1.28-1.49-2.52-3-3.74-4.53-1.13-1.38-2.25-2.79-3.33-4.21-2.59-3.29-5.09-6.62-7.55-10.02a329.004 329.004 0 01-26.3-43.05q-4.365-8.536-8.23-17.36c-.59-1.33-1.16-2.66-1.73-3.99q-5.926-13.996-10.57-28.62-4.8-15.15-8.15-30.91a327.485 327.485 0 01-5.32-33.39q-.736-6.856-1.18-13.79-.676-10.636-.69-21.44v-.15c0-.7 0-1.41.01-2.1.02-3.14.08-6.26.18-9.39.2-5.55.52-11.09 1-16.57.24-2.93.52-5.86.85-8.77.03-.34.07-.67.11-1.01q.974-8.626 2.4-17.09l.09-.5c1.19-6.99 2.59-13.93 4.21-20.75.22-.9.43-1.8.66-2.69.13-.57.28-1.13.43-1.69.02-.06.03-.13.05-.19q2.624-10.576 5.97-20.86c.08-.24.15-.47.24-.71 1.42-4.38 2.95-8.71 4.55-13.01.18-.48.36-.98.55-1.46v-.02c.05-.14.11-.28.16-.42.63-1.64 1.26-3.26 1.91-4.89.41-1.02.82-2.04 1.24-3.03v-.02q2.504-6.18 5.3-12.19c.33-.73.66-1.45 1.01-2.17q2.805-6.09 5.91-12.02c.91-1.76 1.84-3.52 2.8-5.26q2.16-3.976 4.42-7.89a327.806 327.806 0 0122.64-34.1c.39-.51.77-1.02 1.16-1.52q6.3-8.25 13.14-16.07c.43-.49.86-.99 1.29-1.48q3.735-4.246 7.61-8.36 1.32-1.41 2.67-2.79 4.275-4.44 8.73-8.71 3.345-3.226 6.78-6.34 4.8-4.366 9.78-8.54 8.625-7.23 17.74-13.88a327.655 327.655 0 0144.36-27.26q4.605-2.356 9.3-4.57c.63-.3 1.26-.59 1.9-.88q7.08-3.286 14.34-6.24 10.425-4.246 21.21-7.79c.79-.26 1.57-.52 2.36-.77q6.27-2.026 12.64-3.75c2.09-.58 4.19-1.15 6.3-1.68a.127.127 0 01.06-.01h.01c.99-.26 1.99-.51 2.98-.76h.01c1.35-.33 2.71-.65 4.06-.96 2.59-.61 5.22-1.18 7.85-1.71.57-.14 1.14-.24 1.72-.35 8.34-1.67 16.82-3.03 25.39-4.06 3.19-.37 6.4-.72 9.63-1.01 1.03-.09 2.05-.18 3.1-.25 3.4-.27 6.81-.5 10.24-.67h.01c.35-.02.71-.03 1.06-.05q6.27-.3 12.6-.36c.97-.01 1.94-.01 2.9-.01 1.99 0 3.97.01 5.93.06 1.72.03 3.43.08 5.15.14 4.8.15 9.55.4 14.29.77h.01c.19.01.37.03.56.04q15.734 1.23 31.01 3.91h.02c1.1.17 2.17.38 3.26.57 2.35.44 4.72.89 7.06 1.39.85.17 1.69.35 2.52.53h.02c.84.18 1.69.37 2.53.56.6.13 1.2.27 1.8.41.94.21 1.87.44 2.8.66.95.23 1.9.46 2.85.7.52.13 1.04.26 1.55.39.84.21 1.67.42 2.52.64 1.67.44 3.36.89 5.04 1.36.98.29 1.96.55 2.94.85l.11.03h.01l.27.09c.23.06.46.13.68.2.45.12.89.25 1.33.39h.02q5.04 1.5 10 3.16c.96.31 1.91.64 2.87.97q2.97 1.02 5.93 2.1c.96.35 1.93.69 2.88 1.07.33.12.67.25 1 .37 2.8 1.05 5.58 2.15 8.32 3.28a.02.02 0 01.02.02.365.365 0 01.09.04c1.55.62 3.08 1.27 4.62 1.95h.01q2.339.99 4.66 2.04c.28.13.57.25.85.38 1.22.55 2.43 1.1 3.65 1.66 1.07.51 2.14 1.01 3.2 1.52.02 0 .02.01.03.01.03.02.08.05.09.06q6.674 3.194 13.15 6.67 4.8 2.58 9.5 5.31c1.87 1.08 3.74 2.19 5.59 3.31q8.384 5.1 16.43 10.66c.24.16.47.33.71.49 3.82 2.64 7.58 5.38 11.27 8.18q9.03 6.854 17.54 14.28a329.144 329.144 0 0125.39 24.72c1.6 1.71 3.16 3.44 4.71 5.19.8.88 1.57 1.76 2.34 2.65 2.07 2.37 4.08 4.77 6.07 7.2q5.295 6.48 10.25 13.19c3.07 4.18 6.05 8.39 8.9 12.7.04.05.07.11.11.16q2.474 3.72 4.85 7.51 2.04 3.24 3.99 6.52a327.063 327.063 0 0139.27 100.42q3.27 15.554 5.05 31.61 1.08 9.66 1.57 19.51.209 4.184.32 8.39c.03 1.07.05 2.13.07 3.2.01.8.02 1.6.04 2.41 0 1.01.01 2.02.01 3.03z" fill="#397c6f"/><path class="cls-6" d="M1358.502 469.527a2.407 2.407 0 01.06.243c1.755 7.487 7.747 15.579 17.467 23.591.848.622 1.65 1.275 2.441 1.945a55.443 55.443 0 01-1.028-1.506 110.691 110.691 0 01-6.987-12.85c-2.727-5.607-5.552-11.405-8.86-14.584l-.243-.248a5.724 5.724 0 00-1.922-1.422c-.428.17-1.718 1.799-.928 4.831zm-21.475 39.849c-.033 2.742 3.727 8.031 9.376 11.535l.259.164c7.65 5.067 16.889 6.052 28.174 6.825a10.012 10.012 0 01-.231 19.991c-12.2.55-20.452 1.4-23.85 8.024-1.18 2.276-4.331 8.31 9.675 17.379a34.451 34.451 0 0016.068 5.039c8.973.753 18.449-1.265 27.775-5.77a149.775 149.775 0 01-10.342-52.23 80.852 80.852 0 01.294-8.125 87.022 87.022 0 01-12.826-12.985 10.013 10.013 0 01-15.39 11.766c-.768-.588-1.505-1.18-2.242-1.772-6.604-4.686-17.128-7.042-23.7-3.031-1.126.656-3.017 1.94-3.04 3.19zm227.606 20.445c-1.81 16.183-1.908 29.524-.85 40.507a9.898 9.898 0 01.606 1.706 202.96 202.96 0 007.906 3.3c12.74 5.031 25.254 6.093 36.176 3.055a34.497 34.497 0 0014.853-7.941c12.05-11.497 7.85-16.86 6.247-18.898a11.056 11.056 0 00-1.571-1.646c-4.776-4.043-12.532-3.322-23.339-1.767a10.018 10.018 0 01-3.95-19.61c10.943-2.842 19.842-5.537 26.42-11.94.071-.073.15-.135.222-.208 4.907-4.498 7.618-10.393 7.07-13.071-.26-1.236-2.365-2.143-3.803-2.655-6.996-2.647-16.887 1.627-22.508 7.456-.609.725-1.227 1.448-1.866 2.176a10.025 10.025 0 01-13.91 1.078 10.248 10.248 0 01-3.405-9.785c-5.23 9.906-13.453 20.59-24.298 28.243zm26.458-32.65a45.937 45.937 0 012.035-2.357c8.027-9.65 12.429-18.738 12.765-26.42.006-.086.003-.173.01-.259.219-3.113-1.357-4.48-1.707-4.565a4.388 4.388 0 00-1.72 1.76 2.28 2.28 0 01-.198.281c-2.662 3.743-4.354 9.965-5.988 15.985a110.168 110.168 0 01-4.467 13.899 43.43 43.43 0 01-.73 1.676z"/><path class="cls-7" d="M1452.867 511.815c-23.796 15.821-53.432-2.966-67.09-23.567-5.994-8.999-9.726-21.877-17.245-29.106-10.467-10.77-23.15-.203-19.715 12.921 2.945 12.536 13.413 23.305 23.339 31.027-9.337-8.213-25.851-12.446-37.112-5.567-15.83 9.187-5.266 24.87 6.086 31.903 10.027 6.64 21.38 7.673 33.03 8.465-12.044.54-26.004 1.171-32.3 13.413-6.759 13.051 2.401 23.453 13.121 30.393a44.717 44.717 0 0020.672 6.615c14.7 1.234 28.833-3.458 41.162-11.243 10.447-6.597 21.059-14.108 27.978-24.557 5.754-9.286 12.198-26.146 7.433-36.667z"/><path class="cls-6" d="M1604.609 632.287s-68.571 6.082-47.44-121.39c21.13-127.471-154.428-81.966-153.228 9.304 1.201 91.27 97.473 178.473 200.668 112.086z"/><path class="cls-7" d="M1596.937 631.785c-17.273-2.878-56.441-20.311-39.769-120.887 16.613-100.216-88.337-93.516-133.398-41.723a27.807 27.807 0 014.235-1.87c12.385-4.25 14.43 8.595 14.41 17.815 1.604-5.438 7.452-10.005 11.879-13.186 9.958-7.154 24.317-10.152 36.105-6.189a28.961 28.961 0 0116.264 15.477c5.111 12.976 3.006 29.8.802 43.219-3.451 21.034-8.239 42.034-7.658 63.505.394 14.528 3.444 30.157 11.277 42.615 4.422 7.034 14.066 13.556 21.847 16.03 14.778 4.686 31.36-.55 45.235-5.91a128.317 128.317 0 0018.77-8.896z"/><path class="cls-7" d="M1593.869 634.125c-.339-4.401-2.487-8.687-4.24-12.661-1.915-4.343-3.994-8.771-4.83-13.475-.68-3.836-.938-8.673 1.953-11.744 3.066-3.26 5.837.763 6.808 3.643a36.586 36.586 0 011.588 12.344c-.095 4.198-.67 8.367-.818 12.564.155-4.392 2.066-9.054 3.882-12.992.846-1.84 2.538-5.558 5.004-5.664 4.957-.21 1.204 9.576.488 11.438a310.287 310.287 0 00-4.777 13.367c2.09-1.622 3.648-3.927 5.517-5.785 1.542-1.533 3.09-3.81 5.416-4.2 1.774-.294 2.834.874 2.765 2.607-.143 3.688-3.599 6.017-6.438 7.738a70.863 70.863 0 01-11.173 5.911z"/><path fill="#ef6623" d="M1429.004 524.079l28.242 3.017-16.777 25.397-11.465-28.414z"/><path d="M1557.573 591.509s-36.509-11.235-36.675-61.711l33.798 44.717s-.092 5.294 2.877 16.994z" fill="#ad2126"/><path class="cls-7" d="M1521.056 527.245c26.325 11.118 51.948-12.854 61.536-35.637 4.214-9.955 5.484-23.304 11.528-31.805 8.28-12.528 22.711-4.507 21.775 9.028-.562 12.865-8.842 25.393-17.161 34.825 7.648-9.806 23.087-17.036 35.429-12.374 17.263 6.082 9.802 23.458-.046 32.48-8.613 8.39-19.578 11.519-30.878 14.462 11.933-1.713 25.769-3.686 34.232 7.166 9.072 11.57 2.003 23.493-7.237 32.308a44.776 44.776 0 01-19.081 10.343c-14.213 3.948-28.974 1.967-42.534-3.39-11.49-4.536-23.317-9.943-32.058-18.922-7.382-8.055-18.075-27.094-15.35-38.317z"/><path class="cls-10" d="M1435.61 513.41a2.098 2.098 0 01-1.782-1.538c-1.217-4.51-4.493-11.842-8.106-12.304l-.033-.004c-2.329-.272-5.276 2.495-8.31 7.802a2.096 2.096 0 11-3.637-2.081c4.084-7.15 8.149-10.383 12.425-9.884l.06.007c7.575.978 11.253 13.907 11.65 15.38a2.097 2.097 0 01-1.482 2.566 2.143 2.143 0 01-.785.057zM1454.326 514.725a2.223 2.223 0 01-.529-.132 2.097 2.097 0 01-1.178-2.72c3.063-7.71 6.659-11.484 11.004-11.542 7.534-.134 13.063 12.19 13.662 13.591a2.093 2.093 0 11-3.85 1.644c-1.843-4.298-6.28-11.11-9.762-11.043-2.352.03-4.891 3.19-7.155 8.892a2.103 2.103 0 01-2.192 1.31z"/><path class="cls-6" d="M1139.955 816.19q-6.046 3.96-12.27 7.66-7.875 4.65-16.06 8.88-4.59 2.384-9.27 4.63c17.01-17.02 30.93-37.1 28.41-55.04-2.18-15.49-20.47-44.1-118.32-62.15-.4-.07-.79-.14-1.19-.22l1.27-9.51v-.01l.15-1.18 1.12-8.34q7.92 1.44 15.37 3.01c74.33 15.65 112.91 40.33 117.82 75.28 1.78 12.71-1.23 25.22-7.03 36.99zM769.8 746.467c-42.836 0-96.523-9.028-160.301-36.857l6.574-15.064c88.286 38.528 155.754 38.557 196.788 31.809 44.36-7.3 68.287-23.879 68.524-24.045l9.518 13.395c-2.66 1.895-44.524 30.762-121.104 30.762z"/><path class="cls-6" d="M1012.665 694.14l-.13 15.64-.01 1.14-.08 9.76-1.23 144.98q-6.66 1.034-13.4 1.81-12.75 1.454-25.79 1.92c-4 .15-8 .23-12.03.23h-.03c-4.65 0-9.26-.09-13.85-.31q-6.075-.226-12.09-.72c-4.86-.36-9.7-.85-14.52-1.43q-6.09-.75-12.08-1.72c-4.67-.74-9.28-1.57-13.87-2.52q-6.09-1.23-12.09-2.71a.09.09 0 01-.05-.01c-1.49-.37-2.99-.74-4.47-1.14-1.97-.51-3.93-1.03-5.88-1.58l5.06-129.57.4-10.25.16-3.92.04-1.19.04-1.06.01-.08.92-23.75 105.03 5.05z"/><path fill="#1c75bc" d="M1012.526 709.03l-102.169 97.817-40.528-95.07 91.688-15.539 51.009 12.792z"/><path class="cls-6" d="M945.115 706.304l-45.498.426h-.03l-16.752.162 1.115 2.495.822 1.855 1.41 3.154.182.426 1.835 4.107 25.959 58.223 63.273-59.856 12.057-11.408zm24.68 12.28l-54.188 51.257-22.348-50.122-1.602-3.6-.051-.11-2.069-4.665-.1-.213 31.15-.294 57.97-.538zM689.086 417.81L740.735 281.7l-7.4-37.768 120.773-42.413 103.782 56.823 83.02-55.912 1.375 3.911 4.675-1.642 5.747 16.364 14.036 67.129 69.86-15.182 14.43-5.067c-2.453 17.077 3.246 33.425 15.162 46.747l.247 44.755-2.626 200.767-146.393 94.712-149.47-1.345-136.317-112.783z"/><path class="cls-12" d="M1200.187 364.677c22.622 9.866 62.564 57.484 62.564 57.484-19.053-54.046-89.73-97.142-89.73-97.142.427-.953.853-1.825 1.289-2.737a31.85 31.85 0 01-3.367-2.698 62.51 62.51 0 01-4.725-4.857l-.02-.02-.051-.05-.01-.01a19.28 19.28 0 01-1.775-2.1 1.915 1.915 0 01-.131-.172.909.909 0 01-.092-.112c-.03-.04-.07-.07-.101-.111a20.147 20.147 0 01-1.835-2.353c-.142-.182-.285-.365-.406-.557a16.33 16.33 0 01-.801-1.116 27.076 27.076 0 01-1.106-1.622 33.191 33.191 0 01-1.166-1.866l-.091-.152a52.201 52.201 0 01-3.975-7.879.937.937 0 01-.111-.294.038.038 0 01-.01-.03.184.184 0 01-.02-.071 22.08 22.08 0 01-.457-1.136v-.01a25.747 25.747 0 01-.457-1.237 7.1 7.1 0 01-.253-.73l-.03-.112a13.128 13.128 0 01-.315-.963 58.501 58.501 0 01-.77-2.647l-.061-.233a.35.35 0 01-.02-.101 26.032 26.032 0 01-.376-1.542v-.01l-.182-.821c-.04-.254-.091-.507-.142-.76a40.054 40.054 0 01-.274-1.593 10.8 10.8 0 01-.101-.567.495.495 0 01-.02-.122c-.051-.304-.102-.608-.132-.923 0-.03-.01-.07-.01-.111a3.216 3.216 0 01-.041-.325c-.03-.223-.05-.456-.071-.69a.607.607 0 01-.02-.131.06.06 0 00-.01-.04 2.576 2.576 0 01-.03-.274.505.505 0 01-.01-.122c0-.112-.011-.233-.011-.345-.03-.203-.05-.395-.071-.598v-.01c-.02-.284-.051-.568-.06-.852a29.29 29.29 0 01-.062-1.349l-.03-.568q-.03-.79-.03-1.581c-.01-.183-.01-.355-.01-.528-.335.396-.67.801-1.005 1.197a84.685 84.685 0 01-3.934 4.38s-2.596-3.245-7.159-8.365l-1.764.618-1.46-4.167a315.672 315.672 0 00-11.783-12.118 263.594 263.594 0 00-30.937-26.1 170.109 170.109 0 00-19.449-12.016s1.785-1.43 4.827-3.812a255.104 255.104 0 016.976-5.01l-21.994 7.727-2.048.72-8.03 2.809-.01.01-2.12-6.023-.284-.832-2.95-8.396-.386-1.095-1.906.67s0-.01-.01 0l-2.738.963-.416-1.197h-.01l-3.519-10.038-2.12-6.044c-4.816 2.981-9.592 6.044-14.256 9.238a3.122 3.122 0 01-1.065.618 2.947 2.947 0 00-1.571-1.115 152.439 152.439 0 00-109.127-33.99 62.31 62.31 0 00-12.533 1.907c25.178 2.352 48.55 21.618 49.382 22.328a489.576 489.576 0 00-79.539-8.244l4.97 14.146.354 1.004-18.719 6.58h-.01l-2.312.801h-.01l-84.293 29.61c-.396.354-.792.699-1.156 1.034-12.493 10.9-21.872 19.732-21.872 19.732a32.527 32.527 0 01-4.381-4.695 55.891 55.891 0 01-3.68-5.15l-3.083 1.084-38.31 13.456C676.952 271.196 676 280.119 676 280.119l33.016-11.965-.172 1.582-3.6 34.557-1.055 10.18-.831 8.072-1.38 13.314-1.328 12.878a137.873 137.873 0 00-64.328 50.173c3.011-2.403 9.4-3.985 15.788-5a171.028 171.028 0 0117.43-1.743c-.242.182-.496.344-.74.537-2.99 2.16-5.81 4.39-8.517 6.632-.436.354-.831.7-1.268 1.024a160.27 160.27 0 00-16.497 16.163c-33.473 37.954-36.484 78.413-36.575 79.994a37.93 37.93 0 0119.52-17.329 35.7 35.7 0 013.599-1.217 156.392 156.392 0 00-6.236 20.078c-3.427 14.642-3.722 27.043-2.069 37.497 5.932 37.539 36.97 49.88 37.924 50.072-2.728-4.239-4.624-26.689-4.624-26.689 21.405 61.55 79.203 104.422 80.106 105.081-4.097-7.138-13.212-44.119-13.497-45.275 14.684 41.564 65.718 69.926 67.472 70.686-6.449-5.354-17.725-42.588-17.725-42.588 22.654 31.262 47.344 47.405 63.447 55.05 1.085.63 2.13.953 3.214 1.572l.01.01h.01a86.089 86.089 0 0015.727 5.273c2.637.497 4.99 1.095 7.322 1.693l-.224.355a21.915 21.915 0 012.566.213c2.545.243 5.09.467 7.341.78 2.292.315 4.583.67 6.855 1.076 3.245.568 6.47 1.217 9.684 1.967q2.661.593 5.293 1.298c.851.213 1.713.446 2.565.68q-1.354-.411-2.616-.792-2.92-.882-5.425-1.612a462.887 462.887 0 00-9.46-2.687c-.913-.253-1.734-.477-2.485-.68h-.01c-2.464-.648-4.086-1.044-4.969-1.267q3.59.548 7.2.892a1.55 1.55 0 00.304.03q4 .396 8.01.559c1.593.06 3.174.101 4.766.101 1.866.02 3.742-.01 5.618-.071a27.905 27.905 0 015.891-.101c3.387-.01 6.52.03 9.572-.173q4.99.122 9.968-.162a126.738 126.738 0 0013.82-1.47 51.482 51.482 0 008.934-2.474l1.126-.335c.213-.081.426-.172.649-.254 7.534-2.96 15.342-5.739 22.916-8.436h.01c.132-.04.254-.091.386-.132 2.24-.933 4.552-1.561 6.773-2.525q3.772-1.353 7.524-2.677a1963.245 1963.245 0 0149.19-16.782c5.394-1.825 10.789-3.62 16.274-5.16q8.533-2.8 16.194-5.416c28.97-10.829 48.925-22.896 77.723-37.76 7.423-2.364 14.48-4.94 21.902-7.302a557.154 557.154 0 0136.413-34.344 70.117 70.117 0 016.429-4.887q2.89-9.598 5.303-19.317 1.901-7.727 3.478-15.525 1.186-5.84 2.18-11.701a31.7 31.7 0 012.981 9.582v.01c.234 1.4.406 2.86.528 4.36a93.743 93.743 0 01-.224 16.813 126.432 126.432 0 01-.84 7.088 106.33 106.33 0 0118.11-7.545l.395-.73a42.27 42.27 0 014.745-7.513l-2.038 1.51c3.194-14.844 3.944-30.349 3.67-43.845v-.01a261.75 261.75 0 00-3.295-36.393 1.097 1.097 0 01-.08-.314c0-.01-.011-.03-.011-.04a3.67 3.67 0 01-.102-1.48c.457.425.923.85 1.36 1.317l.01.01c.121.142.223.264.344.396l.963 1.075.02.02.356.365c6.55 8.558 10.17 24.042 12.117 36.656v.01q.471 3.103.811 5.902c1.004 7.95 1.278 13.74 1.257 14.094a84.492 84.492 0 004.746-13.08 72.461 72.461 0 001.207-4.979c15.139-71.781-62.635-150.934-64.653-152.942zm-382.005 30.309a165.335 165.335 0 016.409-37.285c.101-.345.192-.69.294-1.035a210.76 210.76 0 0112.543-32.792v-.01c16.71-34.598 42.456-62.575 70.027-61.439 13.486.619 25.908 8.092 36.666 19.743a96.302 96.302 0 014.969 5.79q2.707 3.407 5.252 7.148c20.017 29.406 32.012 73.1 30.451 107.038-2.556 55.68-45.387 89.324-91.25 87.478-46.147-1.774-77.906-38.927-75.361-94.636z"/><path class="cls-12" d="M1171.842 486.23c-2.596.722-98.941 121.29-98.941 121.29l-235.819 95.947c135.789 61.678 295.462-50.08 295.462-50.08a161.216 161.216 0 01-55.221 57.272c130.661-40.644 142.532-134.33 142.532-134.33 1.81 22.172-10.317 72.443-10.317 72.443 50.08-56.776 34.603-171.753 34.603-171.753s-69.704 8.49-72.3 9.212z"/><path class="cls-6" d="M806.024 469.809c-37.893-11.225-79.943-22.825-72.541-.66 7.696 22.116 29.233 45.945 29.233 45.945s81.212-34.07 43.308-45.285zm340.928-53.063s-29.66-81.1-70.99-11.144c2.088-2.636 38.917-47.729 73.342 24.144z"/><ellipse class="cls-12" cx="936.963" cy="428.193" rx="30.826" ry="17.658" transform="rotate(-83.666 936.963 428.193)"/><ellipse class="cls-6" cx="788.378" cy="412.577" rx="30.826" ry="17.658" transform="rotate(-77.67 788.378 412.577)"/><path class="cls-13" d="M1278.704 522.2c23.867 9.157 41.044 22.24 38.366 29.22l-22.542 58.76c-2.678 6.98-24.197 5.217-48.064-3.94s-41.044-22.238-38.366-29.218l22.541-58.76c2.679-6.98 24.198-5.217 48.065 3.939z"/><path d="M1284.82 552.59l-22.544 58.767c16.88 4.358 30.191 4.227 32.259-1.164l22.544-58.765c-2.068 5.39-15.33 5.54-32.258 1.162z" style="mix-blend-mode:multiply" opacity=".2" fill="#221f1f"/><ellipse cx="1273.855" cy="534.841" rx="8.782" ry="30.023" transform="rotate(-69.012 1273.855 534.841)" fill="#8e6a2b"/><path class="cls-13" d="M1091.853 497.075l138.372 54.732-5.63 14.673-143.1-56.602a61.85 61.85 0 0010.358-12.803z"/><path class="cls-6" d="M1029.55 582.289c77.602-59.452 82.6-168.934 82.936-169.96l-.08-.288a2.94 2.94 0 00-5.88.08c-.047.945-5.19 107.672-80.437 165.538-48.413 37.055-115.121 46.267-198.106 27.075a3.274 3.274 0 00-3.429 2.195 2.945 2.945 0 001.822 3.745q.082.028.165.051c77.65 17.879 141.667 11.278 190.032-19.24 4.422-3.092 8.844-6.184 12.977-9.196zM756.947 200.207l61.593-9.71 154.526 55.02 44.74-18.138 18.131-7.372 17.567-7.104 4.181-1.711 10.438-4.22a181.875 181.875 0 00-11.698-45.546 187.739 187.739 0 00-64.424-82.711c-41.627-29.733-95.946-41.046-145.985-30.403-15.158 3.21-30.006 8.389-43.204 16.489a111.535 111.535 0 00-47.068 59.46 115.542 115.542 0 00-4.703 51.825 110.458 110.458 0 002.997 14.852c.145.608.32 1.204.495 1.801l.579 1.945a86.421 86.421 0 001.835 5.523z"/><path class="cls-6" d="M1035.844 217.885l14.5 9.982 21.25 14.683c41.979 15.253 70.514 42.593 86.312 61.588 10.89 4.988 21.263 11.755 33.626 8.308s22.144-13.851 28.557-24.56a100.999 100.999 0 009.196-81.8c-20.631-63.368-103.303-88.823-158.88-54.298a72.656 72.656 0 00-7.451 5.264 59.123 59.123 0 00-5.941 5.4c-14.42 14.394-21.862 34.13-21.169 55.433z"/><path class="cls-16" d="M1048.338 235.784a188.93 188.93 0 0123.238 6.773c42.016 15.252 70.535 42.59 86.348 61.568a156.224 156.224 0 0115.098 20.894s8.019-.723 10.858-11.387c.04-.083.038-.186.078-.27-19.026-25.959-63.908-71.993-133.16-87.347l-.456 1.858z"/><path class="cls-17" d="M700.653 348.736s144.691 70.463 318.424-111.57l-176.156 7.535-139.602 77.868z"/><path class="cls-16" d="M604.708 285.097c-1.899-11.426 2.162-23.247 9.013-32.548 6.84-9.332 16.271-16.42 26.068-22.563 35.348-22.185 76.702-33.486 118.242-37.644 41.499-4.178 83.407-1.467 124.965 2.615 48.25 4.782 96.652 11.484 142.96 25.54l22.522-6.212 1.523 4.337c-2.918 1.967-6.2 4.174-9.67 6.495-11.192 7.5-24.165 16.144-32.375 21.28-29.35 18.449-80.603 47.536-140.874 68.217-36.412 12.544-76.162 21.999-116.328 24.15a350.905 350.905 0 01-52.403-3.392 350.34 350.34 0 01-41.048-8.35c-11.474-3.073-22.949-6.84-32.775-13.507-9.795-6.678-17.823-16.714-19.82-28.418z"/><circle class="cls-18" cx="1041.764" cy="229.199" r="24.045"/><circle cx="1041.764" cy="229.199" r="9.57" fill="#f4f2a2"/><path d="M660.278 399.331c-.428.359-.826.706-1.265 1.034l.123-.044z" fill="#a7a9ac"/><path class="cls-17" d="M1056.832 162.6c2.246 3.778 9.862 17.546 10.728 28.293 0 0 3.46-18.778-4.787-33.694a59.123 59.123 0 00-5.94 5.4z"/><path class="cls-7" d="M612.786 702.079c-2.74 9.06-7.75 24.746-18.468 26.98-20.66 4.363-4.352-27.066-.068-36.334-7.868 10.33-15.92 20.59-25.302 29.608-5.003 4.809-10.163 9.755-16.35 13.025-4.481 2.368-15.759 6.862-19.095.416-3.312-6.399 6.362-16.715 10.323-20.959 11.127-11.924 27.938-20.123 44.241-21.257-12.31.877-24.65 1.466-36.993 1.33a178.961 178.961 0 01-23.456-1.517c-5.99-.86-14.954-1.798-19.001-7.073-11.415-14.886 28.983-15.63 35.305-15.766 24.78-.53 43.167 4.902 66.409 12.916l1.648.568c3.977-11.597 15.603-48.716 32.548-45.468 21.888 4.952-14.058 48.508-26.889 52.606z"/><circle class="cls-21" cx="328.236" cy="320.41" r="215.199"/><path class="cls-22" d="M217.412 345.53l-55.284-73.715s-12.536 115.13-13.67 117.847c-1.137 2.714 68.954-44.132 68.954-44.132zM414.124 258.157a37.418 37.418 0 00-4.182 17.509c2.85 11.785 11.256 22.71 23.652 28.92a44.923 44.923 0 0024.082 4.722 39.152 39.152 0 0022.785-19.295c9.461-18.47 2.327-40.596-16.01-49.443-18.318-8.776-40.828-.93-50.327 17.587z"/><path class="cls-23" d="M464.787 272.376a13.172 13.172 0 11-10.891-15.051 13.137 13.137 0 0110.891 15.051z"/><circle class="cls-6" cx="449.577" cy="276.611" r="4.645"/><path class="cls-18" d="M472.8 323.946s20.916-8.054 25.15-1.295c11.63 18.582-122.623 186.965-282.901 22.979 0 0 144.707-275.633 257.751-21.684z"/><path class="cls-24" d="M332.059 257.773c-28.36 25.447-31.535 66.355-6.988 91.45 24.573 24.968 67.457 24.59 95.908-.914 28.43-25.432 31.561-66.385 7.045-91.365-24.555-25.015-67.432-24.603-95.965.829z"/><path class="cls-6" d="M337.883 253.735c-25.688 23.448-27.463 62.372-3.865 87.016 23.618 24.523 63.562 25.404 89.336 1.9 25.752-23.426 27.483-62.395 3.918-86.93-23.601-24.57-63.538-25.411-89.389-1.986z"/><path class="cls-22" d="M423.354 342.652a62.607 62.607 0 0016.835-25.035c2.434-20.175-4.353-42.255-20.176-59.275a75.3 75.3 0 00-35.043-21.54 65.612 65.612 0 00-47.087 16.933c-25.688 23.448-27.463 62.372-3.865 87.016 23.618 24.523 63.562 25.404 89.336 1.9z"/><path class="cls-24" d="M340.453 334.525c-22.099-23.079-21.944-58.678-.74-82.366-.614.518-1.23 1.033-1.83 1.576-25.687 23.448-27.463 62.372-3.864 87.016 23.617 24.523 63.561 25.404 89.336 1.9 1.58-1.437 3.045-2.95 4.443-4.498-25.802 21.704-64.326 20.274-87.345-3.628z"/><path class="cls-18" d="M313.618 231.821c-11.203-25.556-54.517-31.612-75.853-15.734-6.291 4.549-10.707 17.872.576 19.128 5.886.851 12.451-3.011 17.963-4.716a86.882 86.882 0 0120.35-3.906c16.306-.892 25.782 5.836 35.757 17.443-.245-.22-.268-.688-.76-1.129"/><path class="cls-18" d="M317.316 241.239c14.214-24.011-6.145-62.717-31.49-70.778-7.363-2.457-20.762 1.731-15.198 11.628 2.748 5.275 9.714 8.355 14.316 11.839a87.142 87.142 0 0115.046 14.242c10.236 12.722 10.307 24.348 6.703 39.22.033-.326.397-.62.47-1.276"/><path class="cls-18" d="M309.048 239.817c-16.918-13.362-48.649-1.764-57.433 16.81-2.638 5.385-.814 16.072 7.337 12.834 4.322-1.56 7.394-6.576 10.536-9.74a67.338 67.338 0 0112.455-10.05c10.795-6.528 19.703-5.38 30.717-1.09-.247-.058-.434-.37-.929-.49"/><path class="cls-24" d="M269.283 310.25s-23.865 10.836-.875 25.676c0 0-16.89-10.212.384-25.436zM286.823 294.629s-23.864 10.834-.874 25.677c0 0-16.89-10.216.385-25.439zM301.682 314.618s-18.812 8.54-.69 20.241c0 0-13.313-8.053.305-20.053zM282.195 328.693s-23.867 10.836-.876 25.677c0 0-16.89-10.214.385-25.436zM257.973 337.101s-19.086 8.664-.7 20.533c0 0-13.507-8.17.308-20.344zM251.062 309.744s-19.086 8.664-.7 20.533c0 0-13.507-8.17.308-20.343zM236.534 333.68s-14.564 6.61-.532 15.667c0 0-10.306-6.234.234-15.523z"/><g clip-path="url(#clip-path)"><path d="M136.794 386.779a.664.664 0 01-.133-.055l-.318-.161-.066-.363 1.381-.223-.69.111.4-.569a.634.634 0 00-.45-.108c2.225-.487 46.287-23.012 74.933-37.749l-.858-.254-64.206 5.697-.464-26.328 64.812 19.214 1.58-.14-62.812-39.21 1.918-21.247 63.787 60.2.317-.029c4.153-2.138 7.875-4.058 10.959-5.65l.625-.323 3.098 6.075-13.61 1.208 7.058 4.405-3.53-1.047 4.287 4.046-.96 1.017-6.299-5.944-3.764-1.115a11685.698 11685.698 0 01-30.998 15.896c-13.025 6.652-23.446 11.93-30.974 15.69-13.142 6.561-14.537 7.086-15.023 6.956zm10.961-58.119l.404 22.918 59.187-5.252zm3.619-22.75l59.51 37.148-57.928-54.67zm75.527 35.57c-1.121.579-3.696 1.907-7.289 3.758l8.807-.781z" fill="#aaa996"/></g><path class="cls-24" d="M451.954 384.067c-112.465 59.539-231.796-34.76-236.947-38.901l-.278.522c97.884 100.15 186.057 76.33 237.225 38.379z"/><path class="cls-6" d="M472.8 323.946c-48.791-109.608-103.48-120.553-149.887-97.593 10.055-4.774 87.711-36.196 148.133 99.27 0 0 17.346-7.44 27.587.367a5.898 5.898 0 00-.684-3.339c-4.233-6.76-25.149 1.295-25.149 1.295zM321.97 222.264c-.403-21.685-16.813-45.655-36.144-51.803a16.374 16.374 0 00-7.726-.41c11.561 2.913 34.444 13.545 43.87 52.213zM237.765 216.087a16.932 16.932 0 00-5.625 7.943c6.758-7.703 30.103-27.637 74.991-1.8-16.464-17.22-51.025-19.791-69.366-6.143z"/><path class="cls-23" d="M440.162 286.574a16.209 16.209 0 11-13.403-18.522 16.165 16.165 0 0113.403 18.522z"/><circle class="cls-6" cx="432.481" cy="285.522" r="5.576"/><path class="cls-21" d="M469.355 475.226l108.47 52.764-79.059-89.519-29.411 36.755z"/></g></g></svg>