<svg xmlns="http://www.w3.org/2000/svg" viewBox="0 0 370 350"><defs><style>.cls-1{isolation:isolate;}.cls-2,.cls-3{fill:#badbea;}.cls-13,.cls-15,.cls-18,.cls-2,.cls-8{opacity:0.2;}.cls-4{fill:#e63f31;}.cls-5{fill:#d7ab76;}.cls-6{fill:#5a3026;}.cls-7{fill:#fff2e4;}.cls-19,.cls-8{fill:#754d29;}.cls-13,.cls-18,.cls-8,.cls-9{mix-blend-mode:multiply;}.cls-9{fill:#69644e;opacity:0.51;}.cls-10{fill:#733e2f;}.cls-11{fill:#7d4d1f;}.cls-12{fill:#929497;}.cls-13,.cls-15{fill:#231f20;}.cls-14{fill:#fff;}.cls-16{fill:#38b34a;}.cls-17{fill:#2e4d43;}.cls-20{fill:#f69320;}.cls-21{fill:#fedd10;}.cls-22,.cls-23{fill:#f15b2a;}.cls-22{opacity:0.5;}.cls-23{opacity:0.72;}.cls-24{fill:#ee6725;}.cls-25{fill:#ae2326;}.cls-26{fill:#808083;}</style></defs><g class="cls-1"><g id="Layer_1" data-name="Layer 1"><circle class="cls-2" cx="179.9154" cy="173.92845" r="166.46094"/><path class="cls-3" d="M313.43418,183.56611c-.02.37-.05.74-.08008,1.11-.02.28-.04.54-.06006.81s-.04.54-.06982.81a134.49624,134.49624,0,0,1-8.65015,37.36,133.836,133.836,0,0,1-7.78,16.56q-1.86,3.36-3.90991,6.58-1.56006,2.475-3.23,4.88c-.33008.46-.65015.93-.99,1.39-.08008.11-.1499.22-.23.32995q-2.70008,3.75-5.64014,7.31c-.60986.74-1.23,1.47-1.85986,2.2q-3.29992,3.81006-6.86011,7.35a135.2219,135.2219,0,0,1-53.15991,32.71c-1.09009.35-2.18994.7-3.3,1.03-.31006.1-.61987.19-.92993.28-2.88013.85-5.81006,1.6-8.77,2.25-1.04.22-2.07007.44-3.11011.64-.21.05-.42993.09-.63989.13-.59009.12-1.17993.23-1.78.34-.78.13-1.55.26-2.33008.38-1.55981.25-3.11987.47-4.68994.66a134.99527,134.99527,0,0,1-18.06006,1c-.87988-.01-1.75-.03-2.62988-.06-1.59009-.04-3.18994-.12-4.79-.23-.61987-.04-1.24-.08-1.86011-.14-1.48974-.11-2.96-.25-4.42993-.43-.8999-.09-1.79-.2-2.67993-.32a135.0165,135.0165,0,0,1-17.91992-3.61c-.77-.21-1.54-.43-2.3-.65a134.08423,134.08423,0,0,1-29.59009-12.7c-.6001-.34-1.18994-.69-1.79-1.05q-4.36486-2.625-8.52-5.57c-.67993-.48-1.36987-.98-2.0498-1.48a1.69816,1.69816,0,0,0-.14014-.1c-1.1001-.82-2.17993-1.63995-3.25-2.49-.36987-.28-.73-.57-1.08984-.86q-2.19031-1.755-4.32007-3.62-2.02515-1.785-3.99-3.63-3.93018-3.735-7.55-7.75a136.31617,136.31617,0,0,1-14.65991-19.6c-.38013-.62-.75-1.24-1.13013-1.87v-.01q-2.36974-3.99006-4.48-8.17005a135.07435,135.07435,0,0,1,18.71-149.16c1.7-1.94,3.44019-3.84,5.25-5.68q2.10023-2.16,4.3-4.22a134.26319,134.26319,0,0,1,16.99-13.55q5.04017-3.405,10.38989-6.35a132.40343,132.40343,0,0,1,12.57007-6.09q3.13513-1.335,6.36011-2.5c.29-.1.56982-.21.84985-.3a134.32971,134.32971,0,0,1,52.66016-7.55c.46.02.92993.05,1.3999.08,1.71.11,3.40991.26,5.09009.43h.01a134.45407,134.45407,0,0,1,31.96,7.3q5.11487,1.845,10.04,4.09,1.00488.45007,2.01.93,5.09985,2.43007,9.92993,5.25A134.94885,134.94885,0,0,1,313.43418,183.56611Z"/><path class="cls-4" d="M292.51844,223.93048c.3414,3.28542,1.02444,8.9914,4.54973,10.46349,6.79252,2.8574,3.27623-8.98847,2.4191-12.44686a88.1488,88.1488,0,0,0,6.71856,11.81468,26.30713,26.30713,0,0,0,4.74406,5.54127c1.37985,1.10721,4.9481,3.39082,6.51634,1.40185,1.55693-1.97462-1.07806-6.1476-2.15545-7.86313A24.20155,24.20155,0,0,0,301.551,222.64017c4.16061,1.11231,8.35057,2.12747,12.58984,2.89467a62.45334,62.45334,0,0,0,8.1382,1.02669c2.10931.10008,5.24317.36976,6.9776-1.1709,4.89344-4.34888-8.90155-7.26739-11.05919-7.73054-8.45717-1.81541-15.11611-1.16621-23.60935.04759l-.60218.08606c-.59837-4.2364-2.1352-17.72335-8.15608-17.72757-7.82741.254,1.61934,17.55028,5.746,19.80067Z"/><path class="cls-5" d="M247.29031,241.24821c27.124,0,48.3171-19.94015,49.22461-20.80618l-5.05816-5.2963,2.52908,2.64815-2.52622-2.65029c-.20595.19523-20.87589,19.584-45.72438,18.75588-13.42417-.43838-25.79567-6.69225-36.77087-18.58854l-5.38211,4.96591c12.37006,13.40809,26.4915,20.45432,41.97134,20.94419C246.13358,241.23891,246.7157,241.24821,247.29031,241.24821Z"/><path class="cls-5" d="M100.96343,241.24821q.8646,0,1.7367-.02718c15.47984-.48987,29.60128-7.5361,41.97135-20.94419l-5.38212-4.96591c-10.97519,11.89629-23.34669,18.15016-36.77087,18.58854-24.85814.83456-45.51842-18.55993-45.72438-18.75588l-5.0553,5.29844C52.64632,221.30806,73.84188,241.24821,100.96343,241.24821Z"/><path class="cls-6" d="M207.91416,279.5561v26.97c-1.04.22-2.07007.44-3.11011.64-.21.05-.42993.09-.63989.13-.59009.12-1.17993.23-1.78.34-.78.13-1.55.26-2.33008.38-1.55981.25-3.11987.47-4.68994.66a134.99527,134.99527,0,0,1-18.06006,1c-.87988-.01-1.75-.03-2.62988-.06-1.59009-.04-3.18994-.12-4.79-.23-.61987-.04-1.24-.08-1.86011-.14-1.48974-.11-2.96-.25-4.42993-.43v-29.26Z"/><polygon class="cls-7" points="163.596 230.062 164.417 283.29 203.192 279.201 200.808 228.434 163.596 230.062"/><polygon class="cls-8" points="191.966 237.26 196.665 279.48 201.486 278.91 196.954 236.292 191.966 237.26"/><polygon class="cls-9" points="192.092 235.511 192.342 250.312 184.542 239.387 178.85 250.948 175.786 238.219 175.003 238.446 178.59 253.346 184.276 241.795 186.179 281.011 186.988 280.964 185.077 241.577 193.196 252.949 192.902 235.495 192.092 235.511"/><path class="cls-9" d="M187.05707,256.82327a2.53588,2.53588,0,0,0,2.50649,2.56726,2.11721,2.11721,0,0,0,.44252-.0642,2.57433,2.57433,0,0,0,1.87816-2.27338,2.33472,2.33472,0,0,0,.02027-.40873,2.53373,2.53373,0,0,0-2.50649-2.5673A2.571,2.571,0,0,0,187.05707,256.82327Zm.80735-.03043a1.7109,1.7109,0,0,1,1.56063-1.82747,1.688,1.688,0,0,1,1.67211,1.70924,1.71092,1.71092,0,0,1-1.56063,1.82751A1.68806,1.68806,0,0,1,187.86442,256.79284Z"/><path class="cls-9" d="M187.30706,265.01152a2.53067,2.53067,0,0,0,2.50647,2.56388,2.57035,2.57035,0,0,0,2.34433-2.74293,2.53366,2.53366,0,0,0-2.50649-2.5673A2.57147,2.57147,0,0,0,187.30706,265.01152Zm.81071-.03044a1.71387,1.71387,0,0,1,1.56063-1.83084,1.69254,1.69254,0,0,1,1.66873,1.71262,1.71069,1.71069,0,0,1-1.56063,1.82751A1.68317,1.68317,0,0,1,188.11777,264.98108Z"/><path class="cls-9" d="M187.584,274.08142a2.53362,2.53362,0,0,0,2.50649,2.56726,2.57033,2.57033,0,0,0,2.34432-2.74293,2.53149,2.53149,0,0,0-2.50648-2.56726A2.57032,2.57032,0,0,0,187.584,274.08142Zm.81073-.027a1.71385,1.71385,0,0,1,1.56063-1.83089,1.68534,1.68534,0,0,1,1.66873,1.70924,1.71388,1.71388,0,0,1-1.56063,1.83089A1.68527,1.68527,0,0,1,188.39477,274.05441Z"/><path class="cls-9" d="M164.18759,252.67177l7.52774.238.12262,3.96592-7.9775.0594.00584.88742,7.99911-.05955.21959,7.10145a6.94605,6.94605,0,0,1-1.19684,3.0909c-1.40419,1.96775-3.69933,2.80587-6.82069,2.49592l-.07342.88339a12.45913,12.45913,0,0,0,1.6982.0589,7.42433,7.42433,0,0,0,4.90809-1.84221,7.57936,7.57936,0,0,0,2.29264-4.66287l-.39368-12.84139-8.28824-.26208Z"/><polygon class="cls-8" points="169.939 282.538 174.309 282.676 170.248 239.192 165.314 238.477 169.939 282.538"/><polygon class="cls-10" points="168.527 280.161 202.943 276.447 203.946 284.845 168.503 287.508 168.527 280.161"/><path class="cls-5" d="M148.83961,285.56861c.05925,1.34018.13327,2.61366.2147,3.79839l5.98993-.49611,15.48933-1.29571-.56272-8.87749-.46646-7.33006-2.63585-41.42582-18.08817-.96257S147.88446,265.2889,148.83961,285.56861Z"/><path class="cls-11" d="M166.41755,271.33849l.12837,2.45242c.27361-.21281.54385-.43239.81408-.652l-.10133-1.9322c-.13511.027-.27362.05406-.40875.07431-.03715.00676-.07092.01352-.10471.0169a.02557.02557,0,0,0-.01689.00334.37385.37385,0,0,0-.06418.00677c-.00674,0-.01689.00338-.02365.00338-.07092.01014-.14187.0169-.21281.027Zm0,0,.12837,2.45242c.27361-.21281.54385-.43239.81408-.652l-.10133-1.9322c-.13511.027-.27362.05406-.40875.07431-.03715.00676-.07092.01352-.10471.0169a.02557.02557,0,0,0-.01689.00334.03654.03654,0,0,1-.01688.00339.223.223,0,0,1-.0473.00338c-.00674,0-.01689.00338-.02365.00338-.07092.01014-.14187.0169-.21281.027Zm0,0,.12837,2.45242c.27361-.21281.54385-.43239.81408-.652l-.10133-1.9322c-.13511.027-.27362.05406-.40875.07431-.03377.00676-.07092.01352-.10471.0169a.02557.02557,0,0,0-.01689.00334.03654.03654,0,0,1-.01688.00339.223.223,0,0,1-.0473.00338c-.00674,0-.01689.00338-.02365.00338-.07092.01014-.14187.0169-.21281.027ZM150.97,284.13094l.43914-.01014h.00338l11.61015-.31079.57427-.01687,4.3103-.11484-.04054-.75328-.12836-2.50649-.04392-.858-.33442-6.42157-.10133-1.9322-.04392-.89179-.07092-1.34782-2.94562.17228-12.56952.73638Zm1.94571-.89855-1.0573.027.3378-7.28974.01689-.4121.22632-4.8778,11.77229-.69251,2.12815-.125.03039.59115.0473.885.12837,2.45242.06756,1.33768.02365.42224.206,4.00968.07769,1.46942.09459,1.82412-2.60444.071-.11822.00338h-.00338l-.69248.01686-3.71579.09794-.42225.01352-6.53981.17567Zm13.50184-11.8939.12837,2.45242c.27361-.21281.54385-.43239.81408-.652l-.10133-1.9322c-.13511.027-.27362.05406-.40875.07431-.03715.00676-.07092.01352-.10471.0169a.02557.02557,0,0,0-.01689.00334.03654.03654,0,0,1-.01688.00339.223.223,0,0,1-.0473.00338c-.00674,0-.01689.00338-.02365.00338-.07092.01014-.14187.0169-.21281.027Zm0,0,.12837,2.45242c.27361-.21281.54385-.43239.81408-.652l-.10133-1.9322c-.13511.027-.27362.05406-.40875.07431-.03715.00676-.07092.01352-.10471.0169a.02557.02557,0,0,0-.01689.00334.03654.03654,0,0,1-.01688.00339.223.223,0,0,1-.0473.00338c-.00674,0-.01689.00338-.02365.00338-.07092.01014-.14187.0169-.21281.027Zm0,0,.12837,2.45242c.27361-.21281.54385-.43239.81408-.652l-.10133-1.9322c-.13511.027-.27362.05406-.40875.07431-.03715.00676-.07092.01352-.10471.0169a.02557.02557,0,0,0-.01689.00334.37385.37385,0,0,0-.06418.00677c-.00674,0-.01689.00338-.02365.00338-.07092.01014-.14187.0169-.21281.027Z"/><path class="cls-11" d="M158.11782,272.60524a1.73043,1.73043,0,0,0,.53373,1.2093,1.46781,1.46781,0,0,0,1.00664.40539.28985.28985,0,0,0,.05406-.00339,1.62107,1.62107,0,0,0,1.48968-1.7228,1.72886,1.72886,0,0,0-.53373-1.20593,1.48887,1.48887,0,0,0-1.06067-.40538A1.62318,1.62318,0,0,0,158.11782,272.60524Zm.42563-.01353a1.19171,1.19171,0,0,1,1.07758-1.28365,1.00609,1.00609,0,0,1,.75667.29054,1.2937,1.2937,0,0,1,.3986.90866,1.19542,1.19542,0,0,1-1.081,1.287,1.04034,1.04034,0,0,1-.75329-.29055A1.29551,1.29551,0,0,1,158.54345,272.59171Z"/><polygon class="cls-11" points="160.064 253.571 168.054 240.602 167.693 240.381 160.051 252.785 148.802 235.85 148.448 236.084 160.064 253.571"/><path class="cls-11" d="M151.84608,275.99668c.42444-.08868,9.23956-.319,15.06113-.45269l-.01-.42336c-15.11012.34613-15.19343.44339-15.27388.53707l.1609.138Z"/><rect class="cls-11" x="159.46157" y="275.41312" width="0.42408" height="8.0553"/><path class="cls-5" d="M211.63922,223.7579s7.66791,40.78959,9.70261,59.82218L200.59139,285.21l-6.54931-56.74581Z"/><path class="cls-11" d="M200.53189,266.8356l1.19918,9.74216.3378,2.73954.027.24321.23308,1.88152,1.18568-.21953,4.40152-.80735,11.12036-2.047L215.922,264.5082l-13.32618,2.01665Zm.94245.71617,1.162-.17566,12.63032-1.91195,1.06746,4.74267.08781.39862,1.59442,7.08706-7.49915,1.38155-.41886.07434-2.22947.41211-4.45557.82087-.35133.06416-.1081-.885-.04053-.331-.3378-2.74292-.40534-3.28678-.05406-.42563Z"/><path class="cls-11" d="M206.9771,269.06173a1.71371,1.71371,0,0,0,.66546,1.12823,1.45683,1.45683,0,0,0,1.10123.26012,1.66068,1.66068,0,0,0,1.28027-1.90858,1.68559,1.68559,0,0,0-.66548-1.1249,1.4374,1.4374,0,0,0-1.10122-.26345A1.66062,1.66062,0,0,0,206.9771,269.06173Zm1.3512-1.48971a.99144.99144,0,0,1,.17228-.01687,1.045,1.045,0,0,1,.61142.20263,1.27273,1.27273,0,0,1,.49317.8445,1.2358,1.2358,0,0,1-.93231,1.42893,1.01408,1.01408,0,0,1-.78033-.18581,1.27656,1.27656,0,0,1-.49656-.8445A1.2358,1.2358,0,0,1,208.3283,267.572Z"/><polygon class="cls-11" points="204.821 250.25 213.194 230.673 212.805 230.506 204.69 249.477 195.041 238.888 194.727 239.174 204.821 250.25"/><path class="cls-11" d="M201.91027,273.24555c5.73825-1.07843,14.43288-2.68319,14.86625-2.68462l-.00072-.18523.1509-.19022c-.10119-.08081-.19273-.15662-15.09438,2.64386Z"/><rect class="cls-11" x="209.46847" y="271.55412" width="0.42421" height="8.03124" transform="translate(-45.06617 41.03036) rotate(-10.0975)"/><polygon class="cls-12" points="193.261 286.397 180.868 287.783 179.985 278.315 192.378 276.928 193.261 286.397"/><path class="cls-13" d="M184.04444,285.03725c-1.02446.77057-2.10044,1.57734-3.2101,2.38919l.0333.35688,12.39313-1.3867-.76023-8.15052C189.77534,280.626,186.93584,282.8624,184.04444,285.03725Z"/><path class="cls-14" d="M99.45169,179.315c.48471-1.94085,3.28347-49.59937,3.28347-49.59937l111.05309-33.4224s33.12763,28.58112,33.49447,31.31819,4.16843,50.44892,3.94912,52.10592-28.20706,27.89121-28.20706,27.89121L149.80112,221.139,117.27179,202.3614Z"/><ellipse class="cls-4" cx="170.91026" cy="148.43986" rx="6.32662" ry="9.40882" transform="translate(-38.9389 63.53969) rotate(-18.94801)"/><path class="cls-10" d="M148.83961,285.56861c.05925,1.34018.13327,2.61366.2147,3.79839l5.98993-.49611a131.22529,131.22529,0,0,0,14.92661-10.1732c26.54367-20.84993,37.39063-45.65361,37.94594-46.94192l-5.4494-2.33221A113.46815,113.46815,0,0,1,188.98454,250.999a134.48577,134.48577,0,0,1-19.48015,20.36865A124.69856,124.69856,0,0,1,148.83961,285.56861Z"/><path class="cls-4" d="M83.48109,159.13509c-4.65825,11.12713-12.98163,36.6546.733,51.913,0,0-3.15843-12.47832-.983-18.52832.72627,3.86107,5.55,27.18608,18.38641,41.40069a37.23671,37.23671,0,0,0,7.79641,6.66139c.11486.07769.2297.14862.34792.21958-.01689-.027-.06754-.11484-.14861-.25-.48643-.82763-2.064-3.54012-3.834-6.8742-2.38824-4.513-5.1244-10.16441-5.94525-13.82614.1824.39186,3.1753,6.61747,10.90076,13.02552a54.91524,54.91524,0,0,0,7.80656,5.38792h.00336c7.27283,4.16167,17.042,7.64439,29.93578,8.61388,2.28689.17228,4.66837.26687,7.15459.27021a42.48724,42.48724,0,0,1-7.131-2.41861,51.01483,51.01483,0,0,1-14.97124-9.7354,124.78168,124.78168,0,0,0,15.06245,3.46921c.527.09121,1.06408.18242,1.61469.27363.18917.027.375.0574.5675.08784h.00338c3.8847.61477,8.26594,1.15186,12.97486,1.46941.581.04054,1.16541.07431,1.75994.10808q1.00326.0558,2.0268.0946a.59741.59741,0,0,0,.07769.00338c.098.00338.19254.01014.28712.01352h.00338q1.22116.04559,2.46593.06416c1.68563.03044,3.39826.03044,5.13793-.01014.277-.00338.554-.01348.831-.02025,2.58415-.07768,5.21562-.23986,7.87409-.5067.24321-.027.48644-.05067.733-.07768,2.38486-.25673,4.79-.59791,7.1985-1.037.26686-.04734.53711-.098.804-.14865.74316-.14189,1.48294-.29388,2.2261-.456.64857-.13851,1.29376-.28716,1.94235-.44254.32427-.07769.64857-.15875.97284-.23982,1.037-.2635,2.07071-.54385,3.10438-.85126q2.5791-.755,5.121-1.69576h.00338q2.77671-1.02861,5.496-2.29367h.00338c.19593-.08783.3851-.179.57765-.27022.26011-.125.51682-.25.77693-.37833q1.211-.59286,2.40513-1.24308a65.84714,65.84714,0,0,0,6.84044-4.26306,63.61114,63.61114,0,0,0,5.34736-4.26637h-.02026c.277-.24324.55735-.48645.858-.75671,4.24614-3.888,10.19139-11.00548,14.10311-22.69336,0,0,.05068,12.39049-1.385,14.62334.402-.41549,13.23158-13.85991,13.77544-27.81776,0,0,.72289,12.42426.14525,15.03883.41889-.56414,13.73831-18.78163,14.42065-39.34685,0,0,1.55727,7.05325,1.05393,8.57,0,0,16.47785-12.87353-1.14851-35.46554a11.35806,11.35806,0,0,1,4.75622.82759,12.18746,12.18746,0,0,1,4.02994,2.59766s-3.46582-9.26919-13.56264-17.2953a50.74965,50.74965,0,0,0-15.49485-8.36391,49.24038,49.24038,0,0,1,7.14782-1.33091,9.01705,9.01705,0,0,1,3.58069.20943,33.332,33.332,0,0,0-5.28657-3.52664c-.58439-.32428-1.21269-.6587-1.8849-.98973-.223-.1115-.45266-.223-.68575-.331-.13512-.06754-.27361-.12837-.40874-.19257-.179-.08445-.36481-.1689-.55062-.25l-.00336-.00338c-.125-.054-.25-.11146-.37833-.16552-.12836-.0574-.25673-.11145-.3851-.16551-.21957-.0946-.44589-.18919-.67559-.28036-.11486-.0473-.22971-.0946-.34457-.13851q-.34962-.13681-.70937-.27364c-.16551-.06416-.3378-.12832-.50669-.18915-.14526-.05405-.29053-.10469-.43578-.15541-.32427-.1148-.65533-.22968-.98975-.3378-.39522-.13171-.804-.26007-1.21607-.38167-.3378-.10136-.68236-.19933-1.03366-.29055q-.26858-.07595-.53711-.14185c-.11146-.03043-.22632-.06078-.34118-.08783a1.0098,1.0098,0,0,0-.10808-.02705c-.24661-.06416-.49658-.12156-.74992-.179-.47967-.11146-.97287-.2162-1.4728-.31079-.18243-.03715-.36483-.07092-.55062-.10808-.01014,0-.02365-.00338-.03379-.00338-.179-.03377-.36143-.0642-.54385-.09459-.38172-.06421-.76679-.125-1.15865-.179q-.2939-.04565-.59791-.08106c-.26686-.0372-.53709-.06759-.80733-.0946-.12836-.0169-.25673-.03043-.38847-.04057-.46955-.05064-.94922-.09122-1.43227-.12495l-.51008-1.18567-2.976-6.94179a36.98027,36.98027,0,0,1-10.20154.89517,42.26533,42.26533,0,0,1-7.63087-1.09451q-2.61459,2.10795-5.39128,3.99958l-.00339.00338a114.23379,114.23379,0,0,1-17.12978,9.509c.95258,1.01678,1.88152,2.07075,2.76658,3.16184.858,1.04041,1.68561,2.11124,2.476,3.19895q.5371.73468,1.05393,1.48632v.00338A58.63056,58.63056,0,0,1,202.97081,123.2c.61478,1.31743,1.16539,2.63824,1.62481,3.92523,5.96891,16.64675-.35806,34.13462-14.12676,39.06987-13.76532,4.93524-29.76012-4.55691-35.71889-21.20029a47.13469,47.13469,0,0,1-1.84777-6.74584c-.3513-1.76668-.62492-3.5908-.82085-5.45208-.10471-1.0134-.18916-2.03694-.24658-3.0672-.01353-.17228-.02027-.34794-.03041-.52361a67.41413,67.41413,0,0,1,.05067-7.57347c-14.61657,4.53328-29.44933,8.516-44.43748,11.56628h-.00338q-2.46762.5067-4.942.97283-1.46945.2787-2.93886.54389-2.949.532-5.90136,1.0134c-1.86126.30736-3.7293.59453-5.58719.86474l.09459.1047c.53035.58438,1.06744,1.17553,1.61805,1.77006.21958.23649.44252.473.66545.71279A95.76147,95.76147,0,0,0,76.07653,161.976v.00338a43.67394,43.67394,0,0,0-3.73944,15.13342,138.6077,138.6077,0,0,1,8.59023-16.99808,29.45226,29.45226,0,0,1,5.05687-6.44185S84.90323,155.73009,83.48109,159.13509ZM117.64948,148.839c2.5943.38848,5.8,2.05719,9.7928,5.66824-.46955-.331-16.22787-11.198-20.0146,14.1707l-.47629-4.16167s.483-9.83337,5.0028-13.96464A6.61093,6.61093,0,0,1,117.64948,148.839Zm103.701,42.71474a.96409.96409,0,1,1,.9661,1.6687c-19.52817,11.31628-37.52949,15.74482-53.66954,13.24172a54.6951,54.6951,0,0,1-10.61027-2.753c-29.09464-10.72175-40.94464-43.44778-41.05948-43.77881a.969.969,0,0,1,.58438-1.22956.98294.98294,0,0,1,1.23972.58439c.1081.32427,11.671,32.22263,39.92449,42.6201C176.87918,208.60243,197.95448,205.10956,221.35046,191.55372Zm11.29262-33.30366s-27.80425-2.66524-17.36287-9.62389c10.45151-6.96542,22.13936-14.44768,21.9164-7.0161C236.97705,149.03489,232.64308,158.25006,232.64308,158.25006ZM212.365,120.38278a5.62288,5.62288,0,0,1,3.28-4.3137c1.86128-.68908,3.99955-.02363,5.82366,1.58092a12.4444,12.4444,0,0,1,3.36787,5.05346c1.80047,4.8778.608,9.80632-2.672,11.019-3.27325,1.2093-7.391-1.75658-9.1915-6.63438A12.16883,12.16883,0,0,1,212.365,120.38278ZM83.5115,191.88475a6.57094,6.57094,0,0,1,.30738-.63848s.02027.20609.071.5709C83.74458,191.8408,83.61283,191.86785,83.5115,191.88475Z"/><path class="cls-13" d="M79.84349,136.617s118.713,4.80818,152.46909-55.72834L86.63576,125.22828S80.89086,132.19727,79.84349,136.617Z"/><path class="cls-5" d="M80.1439,124.72766q.54935,1.43082,1.15294,2.817c.526,1.22556,1.07712,2.43367,1.667,3.61894a76.19212,76.19212,0,0,0,4.63749,8.1333L227.37879,85.63172a76.19166,76.19166,0,0,0-1.997-9.14707c-.35489-1.27549-.75391-2.542-1.18318-3.8047q-.47916-1.43394-1.02848-2.86477A76.60313,76.60313,0,0,0,78.68244,120.56984C79.12916,121.96071,79.61314,123.34523,80.1439,124.72766Z"/><path class="cls-10" d="M200.652,72.79215l.703-.23171a73.53253,73.53253,0,0,0-15.8846-24.77518c-10.69844-11.11464-30.02-24.03-61.28861-22.39592l.03862.73945c30.97577-1.61978,50.10423,11.154,60.694,22.14634A72.77227,72.77227,0,0,1,200.652,72.79215Z"/><circle class="cls-5" cx="124.20104" cy="25.75902" r="7.88495"/><path class="cls-15" d="M100.65677,72.418c-2.59943-1.74261-5.16338-3.7968-6.44843-6.65028-3.00375-6.6699,3.59432-11.55316,9.60982-8.28785a18.9973,18.9973,0,0,1,5.8609,5.68592c-1.55712-2.39616.37844-5.94216,3.15777-6.60665s5.71095.95238,7.40568,3.25328,2.39853,5.1666,2.98293,7.96385c.14222-1.9521.484-4.2303,2.20449-5.16342a3.858,3.858,0,0,1,3.97554.46877,8.82794,8.82794,0,0,1,2.54271,3.31721c3.47578,6.89324,4.60485,18.11154-.85334,24.416,2.462,2.5798,4.78614,5.06955,6.89369,7.3292a.82856.82856,0,1,1-1.21216,1.12992c-2.09369-2.24472-4.4022-4.71762-6.8464-7.27933-.13015.11532-.26227.22885-.39788.33942-6.31215,5.1459-18.45016,5.27351-25.70825,2.7282a11.21678,11.21678,0,0,1-4.68893-2.79368,5.32367,5.32367,0,0,1-1.34218-5.0864,3.61745,3.61745,0,0,1,3.96816-2.43406,13.03725,13.03725,0,0,1-6.77019-4.59193c-1.16-1.52177-1.98245-3.59463-1.1709-5.32745C94.91257,72.49533,98.08594,72.24623,100.65677,72.418Z"/><path class="cls-16" d="M130.5324,90.44227q.26061-.12317.51373-.25689c7.96432-4.20978,9.88835-16.33242,8.05989-24.3392a8.82737,8.82737,0,0,0-1.67166-3.83073,3.858,3.858,0,0,0-3.74661-1.40979c-1.89423.49268-2.77316,2.62212-3.38,4.48292.10448-2.85574.1094-5.80659-.98316-8.44713s-3.55015-4.91414-6.4077-4.93654-5.58807,2.955-4.65191,5.655a18.9979,18.9979,0,0,0-4.32395-6.927c-5.05532-4.61435-12.633-1.4585-11.31891,5.73755.5622,3.07858,2.55782,5.68839,4.66271,8.00423-2.45439-.78405-5.59473-1.30432-7.21587.69835-1.2039,1.48725-.90327,3.697-.14273,5.45276a13.03809,13.03809,0,0,0,5.8118,6.28413,3.54136,3.54136,0,0,0-4.779,1.20916,5.32372,5.32372,0,0,0,.0814,5.25988,11.21765,11.21765,0,0,0,3.88083,3.83794C111.35574,91.13076,123.16919,93.92174,130.5324,90.44227Z"/><path class="cls-17" d="M136.623,99.34444a.81966.81966,0,0,0,.40226-.10512.82848.82848,0,0,0,.32074-1.12706c-5.53623-9.94111-13.1181-23.5573-21.0132-33.5499a.82839.82839,0,0,0-1.30012,1.02694c7.81215,9.8889,15.35683,23.43716,20.86588,33.32963A.82859.82859,0,0,0,136.623,99.34444Z"/><path class="cls-17" d="M126.41226,82.32992a.82867.82867,0,0,0,.14625-1.6441L115.06126,78.6105a.82846.82846,0,1,0-.29463,1.63051l11.49724,2.07532A.80942.80942,0,0,0,126.41226,82.32992Z"/><path class="cls-17" d="M122.61239,75.44459a.58918.58918,0,0,0,.06114-.00286.82783.82783,0,0,0,.76591-.88677l-.79416-10.84218a.81322.81322,0,0,0-.88677-.7652.82784.82784,0,0,0-.76591.88677l.79416,10.84218A.82884.82884,0,0,0,122.61239,75.44459Z"/><path class="cls-10" d="M80.1439,124.72766q1.2738,3.31777,2.81994,6.43593L225.38178,76.48465q-.94132-3.35031-2.21166-6.66947a76.39712,76.39712,0,0,0-3.92277-8.606L78.68244,120.56984C79.12916,121.96071,79.61314,123.34523,80.1439,124.72766Z"/><path class="cls-8" d="M83.89129,158.981l28.06172-8.42877,5.69731-1.71356,35.25287-10.58911,50.06731-15.0487,9.39542-2.81934,9.10247-2.73146,33.27569-10.00324a45.53089,45.53089,0,0,0-18.92992-5.61677l-3.48575-8.1285-37.58895,16.47674-42.93472,18.82748Z"/><path class="cls-5" d="M57.84324,168.97926,269.355,87.77292c-10.41166-8.79538-26.25774-13.9181-45.1564-15.093-.02337.001-.04944-.00483-.07278-.00371L81.34843,127.49318c-.01809.01479-.03354.0366-.05159.05147C68.04016,141.065,59.69373,155.476,57.84324,168.97926Z"/><path class="cls-8" d="M95.17576,154.64607,269.355,87.77292c-10.41166-8.79538-26.25774-13.9181-45.1564-15.093q-.47916-1.43394-1.02848-2.86477a76.51013,76.51013,0,0,0-57.33571-47.82764c-12.38209,11.5429-29.09174,36.33442-8.04451,76.15724,0,0-1.64668.54489-4.41687,1.69578-8.81266,3.653-29.03239,13.41466-44.13668,31.14994A78.308,78.308,0,0,0,95.17576,154.64607Z"/><path class="cls-10" d="M294.27894,201.136q2.04134-5.39981,4.29934-10.69712c3.40177-7.98514,7.25479-15.93053,9.60857-24.22869l9.816,3.17775q-6.3418,17.66228-12.68358,35.32216-1.27761,3.59421-2.57485,7.18207c-.517,1.42936-1.02423,2.86177-1.53455,4.304-1.3968,3.97924-2.74767,7.98435-3.83976,12.06224q-.31333,1.1694-.59724,2.3482c-.9,3.61887-1.62648,7.27205-2.25143,10.94721-1.74559,10.12268-2.84285,20.39-5.12184,30.41584a6.03782,6.03782,0,0,1-1.27492,2.9653c-3.10886,3.262-12.83627-.77773-12.83627-.77773-.72941-10.6305,2.35932-21.11109,5.41455-31.32025.78124-2.61453,1.56914-5.216,2.36018-7.82726q1.358-4.49694,2.7554-8.98115c1.399-4.48913,2.83721-8.96541,4.351-13.40651C291.48246,208.76773,292.84139,204.93905,294.27894,201.136Z"/><path class="cls-7" d="M285.81856,226.02856q-1.40233,4.4826-2.7554,8.98115l11.4583,6.5441c.625-3.67516,1.35143-7.32834,2.25143-10.94721q.28386-1.17874.59724-2.3482c1.09209-4.07789,2.443-8.083,3.83976-12.06224.51032-1.44227,1.01753-2.87468,1.53455-4.304q1.29237-3.58943,2.57485-7.18207l-11.04035-3.5741c-1.43755,3.8031-2.79648,7.63178-4.10941,11.4861C288.65577,217.06315,287.21753,221.53943,285.81856,226.02856Z"/><path class="cls-8" d="M285.81856,226.02856l10.95433,4.578q.28386-1.17874.59724-2.3482c1.09209-4.07789,2.443-8.083,3.83976-12.06224l-11.04036-3.57411C288.65577,217.06315,287.21753,221.53943,285.81856,226.02856Z"/><g class="cls-18"><path class="cls-19" d="M287.69215,264.90442c2.86582-4.27919,3.08823-9.50228,3.62507-14.46068.59522-5.49823,1.30794-10.99432,2.229-16.44795a148.30357,148.30357,0,0,1,9.77279-33.09257c4.54335-10.78265,8.95426-21.28362,10.45837-32.88322l4.22547,1.36788q-6.34176,17.66235-12.68356,35.32219-1.27759,3.59409-2.57485,7.182c-.517,1.42938-1.02421,2.8618-1.53455,4.30405-1.39679,3.97928-2.74769,7.98441-3.83974,12.06229q-.31336,1.16925-.59728,2.34815c-.9,3.61895-1.62648,7.272-2.25142,10.94722-1.74556,10.12266-2.84285,20.39005-5.12185,30.4159a6.03759,6.03759,0,0,1-1.27491,2.96523c-3.10884,3.262-12.83625-.77772-12.83625-.77772-.0704-1.026-.0952-2.0502-.09793-3.07338C280.19779,270.88055,284.88484,269.09628,287.69215,264.90442Z"/></g><path class="cls-20" d="M314.65859,185.65985s27.3082-3.75438,31.04051-25.45463c0,0-7.50772-2.21836-12.94639,5.99041,0,0,7.67215-19.57633,3.5148-30.25529,0,0-6.10961,8.2033-8.76951,11.584,2.8699-3.64848.2443-8.53846-.48456-12.40017a19.87346,19.87346,0,0,1-.05847-6.60729c.20953-1.3996.89452-5.99685,2.36184-6.70514-.00221.00107-13.4151,6.47613-15.406,19.618a8.912,8.912,0,0,0-.762-3.72163c-.63731-1.80333-1.83253-3.27945-2.68729-4.96275a9.93264,9.93264,0,0,1-.78234-5.22478,24.58693,24.58693,0,0,1,.75969-4.60827S289.5682,142.88237,295.153,156.1446c0,0-3.78821.8948-5.83685-1.0411,0,0-8.28988,25.60732,16.70685,31.565Z"/><path class="cls-21" d="M301.0863,159.54315a13.23373,13.23373,0,0,0-.55888,2.63229c-.02376.27472-.04084.56234-.05477.84024l-.49666,12.06923-.33314,7.94053s5.53028,6.53678,15.01574,2.63441l3.9205-6.1384,5.74862-9.00046a11.67072,11.67072,0,0,0,.85557-1.56942,12.98666,12.98666,0,0,0-1.8013-13.66038,12.9834,12.9834,0,0,0-14.65352-3.82047A13.00872,13.00872,0,0,0,301.0863,159.54315Z"/><path class="cls-20" d="M311.85232,181.962c1.62155.2436,3.22431.43551,4.80628.56447l-2,3.13336c-9.4823,3.90326-15.01059-2.638-15.01059-2.638l.18815-4.55429A46.18541,46.18541,0,0,0,311.85232,181.962Z"/><path class="cls-22" d="M300.52742,162.17544c-.02376.27472-.04084.56234-.05477.84024l-.49666,12.06923c5.03547,2.22744,11.84235,4.4854,18.6031,4.43654l5.74862-9.00046a11.67072,11.67072,0,0,0,.85557-1.56942A31.83046,31.83046,0,0,1,300.52742,162.17544Z"/><path class="cls-23" d="M308.72846,151.47072c6.10735,5.62657,11.60461,4.95151,14.65352,3.82047a12.9834,12.9834,0,0,0-14.65352-3.82047Z"/><path class="cls-20" d="M339.67158,146.13061s10.35091-4.46935,2.28345-11.33415C341.955,134.79646,343.76864,141.14587,339.67158,146.13061Z"/><path class="cls-20" d="M310.41317,116.991s-9.67195-1.48474-7.34365,9.9704A15.08,15.08,0,0,1,310.41317,116.991Z"/><path class="cls-20" d="M282.70566,166.33708s-4.86144-1.2994-2.06647-5.0593C280.63919,161.27778,280.7299,164.59989,282.70566,166.33708Z"/><path class="cls-4" d="M55.73534,223.93048c-.3414,3.28542-1.02444,8.9914-4.54973,10.46349-6.79253,2.8574-3.27623-8.98847-2.41911-12.44686A88.14765,88.14765,0,0,1,42.048,233.76179a26.30713,26.30713,0,0,1-4.74406,5.54127c-1.37985,1.10721-4.9481,3.39082-6.51634,1.40185-1.55693-1.97462,1.07806-6.1476,2.15545-7.86313a24.20152,24.20152,0,0,1,13.75979-10.20161c-4.16061,1.11231-8.35057,2.12747-12.58984,2.89467a62.45334,62.45334,0,0,1-8.1382,1.02669c-2.10931.10008-5.24317.36976-6.97761-1.1709-4.89343-4.34888,8.90156-7.26739,11.0592-7.73054,8.45717-1.81541,15.11611-1.16621,23.60934.04759l.60218.08606c.59838-4.2364,2.13521-17.72335,8.15609-17.72757,7.82741.254-1.61934,17.55028-5.746,19.80067Z"/><path class="cls-14" d="M351.97365,25.3486a1.57,1.57,0,0,0-.55924.34283l-.07223.062a15.14639,15.14639,0,0,0-2.76991,3.77344,30.36555,30.36555,0,0,1-2.21654,3.3449c-.10235.12772-.207.25828-.31708.3868.232-.1641.46707-.32328.71355-.47312,2.84793-1.95714,4.67877-4.02519,5.33735-6.02938a.66093.66093,0,0,1,.02231-.06492C352.40011,25.88128,352.08642,25.40537,351.97365,25.3486Zm4.29948,11.80119c-1.69988-1.25319-4.63217-.86083-6.5488.2619-.21568.14418-.43136.28838-.65506.43074a2.74671,2.74671,0,0,1-3.92454-3.5833,23.87248,23.87248,0,0,1-3.81554,3.242,22.1783,22.1783,0,0,1-.11385,2.22728,41.087,41.087,0,0,1-4.07493,14.02609,14.738,14.738,0,0,0,7.45263,2.24086,9.45074,9.45074,0,0,0,4.5113-.993c4.04456-2.14361,3.3276-3.86785,3.05936-4.51808-.77008-1.89146-3.005-2.32077-6.32575-2.76276a2.74645,2.74645,0,0,1,.41474-5.46863c3.10244.05856,5.65071.01,7.86263-1.19166l.07456-.03877c1.62758-.82235,2.78159-2.17792,2.83794-2.92822C357.05142,37.75215,356.56534,37.35607,356.27313,37.14979Zm-67.89878-7.20817a2.81136,2.81136,0,0,1-1.16479,2.59269,2.75,2.75,0,0,1-3.77543-.62691c-.15712-.2144-.30881-.42672-.45791-.6393-1.39669-1.72747-3.9974-3.13186-5.97275-2.57558-.405.10545-1.00219.3031-1.10262.63447-.21364.71886.38612,2.39464,1.61963,3.741.01784.02178.038.04067.05584.06242,1.6444,1.90677,4.0119,2.856,6.93433,3.89407a2.7482,2.7482,0,0,1-1.54817,5.26474c-2.91605-.68326-5.01832-1.06561-6.42017-.07486a3.03269,3.03269,0,0,0-.46872.41224c-.487.51862-1.76287,1.88364,1.25538,5.3137a9.46335,9.46335,0,0,0,3.86937,2.52518,15.64845,15.64845,0,0,0,9.95919.03012c.74622-.22288,1.49656-.4566,2.23944-.71313a2.71519,2.71519,0,0,1,.20613-.45156,54.03185,54.03185,0,0,0,.736-11.09008A22.43024,22.43024,0,0,1,288.37435,29.94162Zm-.6445-1.73142a30.22146,30.22146,0,0,1-.88852-3.90494,15.12468,15.12468,0,0,0-1.25433-4.51154.62635.62635,0,0,1-.04728-.08154,1.20354,1.20354,0,0,0-.428-.52206c-.09782.01492-.561.35086-.57556,1.20682-.00028.02353-.00316.04736-.00344.0709-.09177,2.10745.89372,4.69619,2.85683,7.52522.17677.22811.34343.45984.49976.69263C287.83177,28.52676,287.77935,28.36732,287.72985,28.2102Z"/><path class="cls-4" d="M325.31294,35.99174c6.12475,4.89255,14.67273.46687,18.89782-4.8365,1.853-2.316,3.18068-5.74614,5.40813-7.54185,3.1179-2.69285,6.33152.49778,5.07885,4.00233-1.10431,3.35547-4.22243,6.048-7.11961,7.921,2.74785-2.02111,7.362-2.7831,10.2749-.63413,4.10635,2.88891.84473,6.92225-2.42577,8.57292-2.89874,1.57475-6.02612,1.58582-9.22875,1.52371,3.27845.43531,7.07851.94173,8.50654,4.43768,1.53487,3.72814-1.21693,6.35175-4.31249,7.99223a12.267,12.267,0,0,1-5.80728,1.31335,18.33245,18.33245,0,0,1-10.97988-4.05617c-2.69722-2.05262-5.41769-4.35886-7.05892-7.37975-1.35032-2.67526-2.70831-7.43673-1.15478-10.19809Z"/><path class="cls-14" d="M280.96538,65.2869s18.59364,3.30127,15.86619-32.039C294.10413-2.09261,340.9927,14.53952,338.4829,39.453,335.97287,64.36635,307.57946,85.896,280.96538,65.2869Z"/><path class="cls-4" d="M283.07387,65.3332c4.789-.37346,15.90965-4.20146,13.7577-32.08532-2.14438-27.78387,26.376-23.44419,37.45221-8.21307a7.629,7.629,0,0,0-1.1125-.61255c-3.28315-1.45751-4.14917,2.00412-4.36406,4.52425-.30822-1.52436-1.79712-2.91236-2.93092-3.88747a11.46993,11.46993,0,0,0-9.71868-2.55429,7.94474,7.94474,0,0,0-4.81477,3.84072c-1.70689,3.424-1.53378,8.07159-1.25232,11.7916.44051,5.83062,1.24687,11.68389.57477,17.53761A23.40857,23.40857,0,0,1,306.565,67.05089a12.14452,12.14452,0,0,1-6.35364,3.85829c-4.15038.92762-8.55657-.8999-12.22042-2.69639A35.20009,35.20009,0,0,1,283.07387,65.3332Z"/><path class="cls-4" d="M283.85644,66.046a11.11069,11.11069,0,0,1,1.46136-3.35857,16.53835,16.53835,0,0,0,1.64185-3.567,3.739,3.739,0,0,0-.25293-3.25612c-.7598-.96412-1.61323.0691-1.94761.83282a10.036,10.036,0,0,0-.72886,3.33532c-.07447,1.14956-.01707,2.30262-.07678,3.45316a9.857,9.857,0,0,0-.75038-3.64334c-.18741-.52272-.56066-1.57935-1.232-1.66749-1.34981-.17585-.55814,2.58836-.407,3.11419.35922,1.24843.68412,2.50289.98606,3.767a18.11423,18.11423,0,0,1-1.36943-1.71278c-.38481-.45559-.75353-1.11506-1.37981-1.27718a.62294.62294,0,0,0-.81771.64637c-.04932,1.01116.83948,1.73041,1.57421,2.26868a19.43871,19.43871,0,0,0,2.91221,1.88234Z"/><polygon class="cls-24" points="331.541 39.914 323.751 40.063 327.729 47.405 331.541 39.914"/><path class="cls-25" d="M294.794,55.26747s10.24556-2.19736,11.49771-15.98764L295.98631,50.69218A20.31059,20.31059,0,0,1,294.794,55.26747Z"/><path class="cls-4" d="M306.30954,38.57864c-7.45982,2.40885-13.889-4.75466-15.96469-11.21-.91369-2.8212-.94159-6.49955-2.39011-8.967-1.96326-3.62165-6.09868-1.77477-6.16636,1.94652-.154,3.52914,1.80927,7.15074,3.85734,9.9271-1.85566-2.86237-5.90207-5.20741-9.38623-4.22846-4.86321,1.24962-3.23959,6.17625-.76411,8.87748,2.15347,2.4983,5.075,3.6156,8.09263,4.69006-3.22-.75333-6.95389-1.6233-9.52611,1.14-2.75561,2.94495-1.10885,6.37243,1.20542,9.00205a12.283,12.283,0,0,0,4.96727,3.28274,18.32881,18.32881,0,0,0,11.70471.09055c3.24859-.965,6.60983-2.16009,9.21294-4.40477,2.21-2.02474,5.58731-6.97223,5.11112-10.10448Z"/><path class="cls-26" d="M329.99086,36.84038a.57548.57548,0,0,0,.52365-.37788c.44027-1.20315,1.511-3.12868,2.50937-3.16876l.009-.00026c.643-.01859,1.38224.80794,2.08436,2.33071a.57486.57486,0,1,0,1.044-.48164c-.94537-2.05143-1.97885-3.0323-3.15931-2.99817l-.01683.00048c-2.0931.08633-3.40743,3.53164-3.55106,3.92436a.57539.57539,0,0,0,.34361.7369A.58767.58767,0,0,0,329.99086,36.84038Z"/><path class="cls-26" d="M324.84477,36.75217a.60987.60987,0,0,0,.14756-.02336.57521.57521,0,0,0,.387-.71533c-.65261-2.18006-1.54516-3.29752-2.73118-3.4171-2.05583-.21684-3.86136,3.01918-4.05847,3.38762a.57422.57422,0,0,0,1.01291.54123c.60633-1.13047,1.98185-2.88624,2.93151-2.78454.642.06455,1.26057.98891,1.74291,2.60113A.57684.57684,0,0,0,324.84477,36.75217Z"/></g></g></svg>