<svg xmlns="http://www.w3.org/2000/svg" viewBox="0 0 370 350"><defs><style>.cls-1{isolation:isolate;}.cls-2,.cls-3{fill:#cececc;}.cls-16,.cls-2{opacity:0.2;}.cls-4{fill:#bcd6d2;}.cls-5{fill:#414042;}.cls-6{fill:#e63f31;}.cls-7{fill:#5b5244;}.cls-8{fill:#e2e2e2;}.cls-9{fill:#f4af6b;}.cls-10{fill:#ab5531;}.cls-11{fill:#fff;}.cls-12{fill:#e73e32;}.cls-13{fill:#fbf9fc;}.cls-14{fill:#58595b;}.cls-15{fill:#3999b5;}.cls-16{fill:#606161;mix-blend-mode:multiply;}.cls-17{fill:#4bbbe6;}.cls-18{fill:#f69320;}.cls-19{fill:#faaf43;}.cls-20{fill:#be232f;}.cls-21{fill:#ef4138;}</style></defs><g class="cls-1"><g id="Layer_1" data-name="Layer 1"><circle class="cls-2" cx="179.9154" cy="173.92845" r="166.46094"/><path class="cls-3" d="M313.66622,174.9961c0,.4,0,.8-.01,1.2,0,.51-.01,1.03-.02,1.54,0,.32-.01.62-.02.94v.01c0,.17-.01.34-.02.51q-.08973,3.24-.34986,6.44c-.08008,1.14-.18994,2.27-.31006,3.4a133.43335,133.43335,0,0,1-2.74,16.37c-.49,2.12-1.03,4.21-1.63012,6.29-.02979.1-.05982.21-.08985.31a.325.325,0,0,1-.04.13995c-.27.94-.54,1.88-.84008,2.81-.1399.48-.3.96-.45,1.43-.06983.2-.12989.41-.2.61q-1.155,3.525-2.51,6.95c-.35986.91-.72,1.81-1.10009,2.7q-1.69484,4.05-3.6399,7.97a134.41981,134.41981,0,0,1-67.47,63.61q-1.08.465-2.16015.9c-.73.29-1.44995.58-2.18994.86-.65992.26-1.33008.51-2,.75a1.22528,1.22528,0,0,1-.16993.07c-.56.2-1.12011.4-1.68994.6q-.64526.225-1.29.45c-.41992.14-.83007.28-1.25.41-.55.18-1.10009.36-1.66015.53-.69995.22-1.40991.44-2.11988.64-.71.21-1.42993.41-2.13989.61-.38013.11-.77.22-1.15014.32-1.3.35-2.61011.67-3.91993.98-.37011.09-.73.17-1.10009.26-.55982.12-1.12989.25-1.7.37q-3.53979.75-7.1499,1.31c-1.24023.19-2.49023.37-3.74023.53a134.51945,134.51945,0,0,1-17.00977,1.07q-4.75524,0-9.44018-.33c-.68994-.05-1.36988-.1-2.05-.16-2.51978-.22-5.00977-.5-7.48975-.85-.36011-.05-.72021-.1-1.08008-.16-.16992-.02-.35009-.05-.52-.08-.31-.05-.62988-.1-.93994-.15a132.10932,132.10932,0,0,1-15.25-3.38c-.13012-.04-.26-.08-.39013-.11-.31006-.09-.59986-.18-.87989-.26a134.11872,134.11872,0,0,1-69.91992-49.21c-1.37012-1.85-2.69018-3.75-3.9602-5.68-.10987-.17-.23-.35-.33985-.53-.48022-.73-.95-1.46-1.41015-2.2-.78-1.26-1.55-2.53-2.28-3.82-.35987-.59-.7-1.2-1.04-1.8a1.801,1.801,0,0,0-.1499-.27q-1.70985-3.09-3.26-6.27a133.99955,133.99955,0,0,1,13.57006-139.34q1.03493-1.365,2.1001-2.7c.48-.61.97-1.21,1.46-1.81q1.72485-2.07,3.51-4.07c.98-1.09,1.97-2.17,2.98-3.22q1.905-1.995,3.89991-3.91c.40991-.4.83007-.8,1.25-1.19a131.27173,131.27173,0,0,1,10.42993-8.84q4.33519-3.315,8.95019-6.28,2.84985-1.83,5.79981-3.52a133.24032,133.24032,0,0,1,66.45019-17.63q6,0,11.87988.52,5.74512.51,11.34009,1.49c.39991.07.8.14,1.18994.21,2.84986.52,5.66993,1.14,8.45,1.84,2.3601.6,4.68994,1.25,6.99,1.97,1.85009.57,3.67993,1.19,5.49,1.84,2.15014.78,4.29,1.61,6.39013,2.49.18994.08.36988.16.54981.23q.345.15006.69018.3,4.17,1.785,8.17993,3.86a134.00485,134.00485,0,0,1,70.25,93.4c.2.98.37989,1.96.54,2.95A133.64819,133.64819,0,0,1,313.66622,174.9961Z"/><rect class="cls-4" x="113.91478" y="207.38105" width="20.83576" height="2.9791" transform="translate(-93.91963 315.88217) rotate(-85.35552)"/><polygon class="cls-4" points="131.886 185.992 133.472 207.741 124.92 201.644 115.495 206.28 118.02 194.656 125.71 191.913 118.388 192.948 122.824 172.53 127.765 166.62 123.256 170.535 128.874 144.663 131.731 183.845 126.573 181.293 131.886 185.992"/><rect class="cls-4" x="98.16502" y="192.892" width="10.41788" height="1.48955" transform="matrix(0.08097, -0.99672, 0.99672, 0.08097, -97.99745, 280.99199)"/><polygon class="cls-4" points="107.153 182.195 107.944 193.072 103.668 190.024 98.955 192.342 100.22 186.529 104.063 185.158 100.402 185.675 102.622 175.467 105.09 172.512 102.838 174.471 105.644 161.533 107.073 181.122 104.494 179.85 107.153 182.195"/><path class="cls-5" d="M179.19882,220.9082c-15.83152,11.25019-33.05315,17.50346-51.29721,18.72215-.6158.04451-1.23536.07969-1.85418.106-1.62731.08386-3.26851.11708-4.91127.11417-2.32685-.00447-4.53984-.08072-6.61925-.24965q-1.362-.07914-2.66076-.21616c-.916-.08341-1.83467-.18956-2.69894-.30028l-.73906-.10055c-.78306-.11314-1.53033-.22336-2.24558-.34l-.74582-.12811a65.82828,65.82828,0,0,1-10.47259-2.57481h0l-1.9276,5.11L91.09,246.16024a78.00367,78.00367,0,0,0,15.86774,3.65231c.2538.03413.51136.07755.77073.09862.75247.10164,1.52392.19132,2.31327.28246l.75574.06139,2.76809.22488q1.302.09678,2.6882.15536c1.40332.069,2.84461.11406,4.33388.12251,1.85476-.00237,3.84138-.021,5.91576-.12259.624-.03483,1.257-.06894,1.90446-.11537a110.0127,110.0127,0,0,0,50.8278-16.5456q3.13769-1.94177,6.28069-4.17119Z"/><path class="cls-6" d="M78.82917,238.83523c2.73786-3.55875,4.32484-22.3176-2.61409-19.51879-5.26623,2.32253-1.40129,14.7002-.2895,18.6347l-.55744.15728c-7.89064,2.21284-13.95379,4.205-20.65035,9.06266-1.70726,1.23422-12.63691,9.106-6.68411,11.021,2.11064.67111,4.74374-.767,6.55005-1.66906a59.42615,59.42615,0,0,0,6.71541-4.03684c3.40555-2.30262,6.6922-4.804,9.88411-7.358a23.11044,23.11044,0,0,0-8.09183,14.21967c-.28143,1.91275-.98824,6.56826,1.14795,7.7006s4.377-2.23721,5.156-3.73589a25.04667,25.04667,0,0,0,2.0052-6.6747,84.127,84.127,0,0,0,1.31932-12.91531c.58263,3.35584,2.07574,15.06369,6.91178,9.94688,2.51061-2.64542.90723-7.89825-.05993-10.89821Z"/><polygon class="cls-5" points="103.814 257.097 102.038 226.267 84.897 226.594 84.612 261.515 103.814 257.097"/><rect class="cls-7" x="88.31992" y="252.73487" width="11.27482" height="1.74978" transform="translate(-40.83732 19.13952) rotate(-9.56552)"/><rect class="cls-7" x="88.56294" y="247.21301" width="10.93383" height="1.74977" transform="matrix(0.99113, -0.13287, 0.13287, 0.99113, -32.12991, 14.69353)"/><rect class="cls-7" x="89.38719" y="240.90066" width="10.35932" height="1.74671" transform="translate(-26.07119 11.89573) rotate(-6.32776)"/><rect class="cls-7" x="88.93315" y="236.27584" width="9.68208" height="1.74977" transform="translate(-20.21474 9.02666) rotate(-4.97552)"/><rect class="cls-7" x="89.16068" y="231.20899" width="9.53402" height="1.74977" transform="matrix(0.9995, -0.03151, 0.03151, 0.9995, -7.26564, 3.0746)"/><path class="cls-5" d="M184.41714,226.21164c18.42143,6.12847,36.72521,7.1113,54.52907,2.94446.60107-.14022,1.207-.28455,1.80466-.43856,1.58083-.39823,3.16118-.846,4.73065-1.3262,2.22629-.69692,4.31129-1.42781,6.26213-2.1696.85-.32256,1.60974-.64347,2.47567-.99624s1.70127-.71705,2.4908-1.07154c.21625-.113.46345-.21893.6827-.31365q1.07129-.49815,2.04684-.98156l.67555-.33674a65.85437,65.85437,0,0,0,9.26646-5.51761h0l3.3355,4.32221,3.34445,4.323a79.4533,79.4533,0,0,1-14.11,8.12205l-.70988.31593c-.68753.31777-1.40114.62441-2.13374.943-.23268.09363-.4616.19656-.69876.28983-.82976.35122-1.69494.69505-2.578,1.03744q-1.2319.48059-2.53874.9416c-1.33476.47224-2.69151.9382-4.10943,1.38117q-2.67458.84054-5.69881,1.60767c-.59321.15436-1.20842.30245-1.83705.44944a110.083,110.083,0,0,1-53.4445-1.00178c-2.371-.62474-4.788-1.34777-7.225-2.15793Z"/><path class="cls-6" d="M285.58661,216.61416c-3.65979-2.602-10.64834-20.08145-3.19291-19.43076,5.70585.68861,5.62922,13.65536,5.716,17.74066l.57714-.01164c8.194-.18509,14.58352-.04412,22.39568,2.64316,1.99258.684,14.74351,5.02393,9.61027,8.59063-1.822,1.26092-4.76114.64853-6.75072.31585a60.12213,60.12213,0,0,1-7.60148-1.90044c-3.93484-1.21094-7.79268-2.6497-11.61158-4.17981a23.11489,23.11489,0,0,1,11.88859,11.24246c.82559,1.75058,2.86241,5.98981,1.14795,7.70059s-4.8362-.86555-6.0213-2.06916a25.401,25.401,0,0,1-3.86839-5.79694,81.48419,81.48419,0,0,1-5.0236-11.96765c.41912,3.37408,2.40425,15.00936-3.71386,11.52791-3.176-1.7975-3.17028-7.29772-3.1217-10.44473Z"/><polygon class="cls-5" points="267.08 238.846 259.781 208.842 276.277 204.159 286.737 237.472 267.08 238.846"/><rect class="cls-7" x="269.85617" y="231.74794" width="11.27482" height="1.74977" transform="translate(-27.68505 37.44904) rotate(-7.40552)"/><rect class="cls-7" x="268.34661" y="226.52678" width="10.93383" height="1.74977" transform="translate(-33.2301 47.37508) rotate(-9.32552)"/><rect class="cls-7" x="266.90086" y="221.137" width="10.3775" height="1.74977" transform="translate(-36.79752 54.9467) rotate(-10.80552)"/><rect class="cls-7" x="266.0095" y="215.96869" width="9.68208" height="1.74977" transform="translate(-39.12619 60.97319) rotate(-11.98552)"/><rect class="cls-7" x="264.47178" y="211.18727" width="9.52953" height="1.74977" transform="translate(-46.07739 77.76474) rotate(-15.15552)"/><path class="cls-8" d="M209.3862,305.60608c-.55982.12-1.12989.25-1.7.37q-3.53979.75-7.1499,1.31c-1.24023.19-2.49023.37-3.74023.53a134.51945,134.51945,0,0,1-17.00977,1.07q-4.75524,0-9.44018-.33c-.68994-.05-1.36988-.1-2.05-.16-2.51978-.22-5.00977-.5-7.48975-.85-.36011-.05-.72021-.1-1.08008-.16l-.91015-28.13-.17993-5.43-.12989-4.27-.03-.91-.1499-4.51-.24023-7.71-.3899-12.03v-.01l-.17993-5.43-.1001-3.28v-.01l-.08984-2.74-.07007-2-.2102-6.76,13,2.6h.01025l13.2898,2.66,2.10009.43h.01l19.46,3.89v.04l.17994,2.8.01.17005.32006,5.17.88013,14.11.5,7.96v.01l.2,3.28.10987,1.74.41015,6.6.30982,5.01Z"/><path class="cls-9" d="M170.15609,246.4933a34.74327,34.74327,0,0,0,3.81713,4.6233,16.823,16.823,0,0,0,3.78952,2.95553,7.22809,7.22809,0,0,0,7.56028.102c4.4195-2.585,6.67109-9.2466,6.67109-9.2466l-2.91866-1.21379-2.80736-1.17669-2.95553-1.23222-2.33484-.97277Z"/><path class="cls-10" d="M173.97322,251.1166a16.823,16.823,0,0,0,3.78952,2.95553,19.6964,19.6964,0,0,0,8.50535-11.53507l-2.95553-1.23222C182.67332,243.20413,180.533,247.531,173.97322,251.1166Z"/><path class="cls-10" d="M185.323,254.17414c4.4195-2.585,6.67109-9.2466,6.67109-9.2466l-2.91866-1.21379A50.53493,50.53493,0,0,1,185.323,254.17414Z"/><polygon class="cls-11" points="180.978 240.335 199.767 254.174 204.921 233.743 157.416 235.669 164.832 257.359 180.978 240.335"/><polygon class="cls-11" points="209.729 214.566 244.337 171.661 249.654 131.432 225.481 93.151 225.077 42.541 202.425 61.673 157.7 99.511 120.139 83.959 86.186 78.459 75.37 87.817 96.522 123.781 100.401 143.245 113.589 204.374 164.201 224.169 209.729 214.566"/><path class="cls-12" d="M279.79611,150.31611c-.13989-.56-5.16992-18.53-25.83985-27.86005,0,0,8.02-1.34,10.58008-.04a43.31542,43.31542,0,0,0-22.74023-11.31l-7.57984-24.08,10.84009,1.6s-1.26025-3.92-12.1001-7.8a28.4886,28.4886,0,0,0,1.08008-4.37005c1.35987-7.94.11988-17.44995-1.28-24.44995-1.17993-5.82-2.4602-9.9-2.4602-9.9-1.80982.1-3.54981.26-5.21973.45h-.02a67.36538,67.36538,0,0,0-12.41015,2.62c-10.11988,3.2-16.58985,8.32-20.66993,13.11a32.81288,32.81288,0,0,0-6.1499,10.46,153.02873,153.02873,0,0,0-29.17016,8.58c.18994-.23,6.21-7.57,13.7-9.86a28.9741,28.9741,0,0,0-3.95.23,47.67291,47.67291,0,0,0-31.59009,17.56995,99.049,99.049,0,0,0-19-6.14,84.10862,84.10862,0,0,0-27.65991-1.74,56.73234,56.73234,0,0,0-18.14991,5.18s-.07007,3.79,2.95,11.72a111.79523,111.79523,0,0,0,7.3899,15.27,213.66008,213.66008,0,0,0,15.90014,23.62s-18.93017,17.59-21.35009,35.26c0,0,9.16992-17.04,15.60009-21.54-.52.8-22.68994,34.87-7.33008,55.82,0,0-1.85986-12.45.8501-18.14v-.03a3.79932,3.79932,0,0,1,.31983-.6,5.02,5.02,0,0,1,.39013-.59s0,.19.01.55v.01c.09009,2.7.74,14.54,5.12989,24.46l-.76-.33a12.97328,12.97328,0,0,1,1.96,2.03c.05.06.09009.13.13012.18a37.69952,37.69952,0,0,1,5.96,1.21c-1.46-4.19-2.52-8.79-1.61988-11.73a125.77422,125.77422,0,0,0,6.27979,13.54c.76025.35,1.54.69,2.28,1.09,4.59008,2.53,8.93017,5.26,13.22,8.19,2.3601.27,4.74023.56,7.1101.86,11.36988,3.18,18.86011,6,31.30005,7.35.51.05,1.02.11,1.53.16,1.25.14,2.51.29,3.76.43h.02c6.18994.72,12.33985,1.53,18.5,2.43.75.11,1.5.23,2.25.34h.00977c.95019.15,1.91015.29,2.86011.44,1.65991.26,3.32006.51995,4.98.8,5.42016.89,9.3-.72,15.28-1.62h.01a41.349,41.349,0,0,0,8.03-2.13c-.14013.08-2.26,1.02-7.37988,3.79a49.21153,49.21153,0,0,1,9.25977-3.75h.01c.27-.08.54-.15.81006-.23l-.12989-.07c.71-.31,1.43994-.62,2.16992-.96a26.62134,26.62134,0,0,0,4.47-2.61h.01c.31006-.2.61011-.43.90015-.66,4.52979-3.38,11.0398-9.75,15.98975-20.76,0,0-1.15991,12.09-2.77979,14.14.43994-.37,14.27979-12.24,16.16992-25.8,0,0-.52,12.23-1.34008,14.71,0,0,15.2102-16.7,17.92993-37.02,0,0,.82007,7.03.2102,8.46.34986-.22,17.18994-11.21,2.33985-34.72A11.743,11.743,0,0,1,279.79611,150.31611Zm-177.91992-32.34c-5.86988-3.84-10.74-10.79-14.15992-16.85a92.85564,92.85564,0,0,1-5.53-11.53c5.95-2.97,13.31006-2.74,19.96-1.39a75.52226,75.52226,0,0,1,18.02,6.31C109.36618,103.3061,101.87619,117.97608,101.87619,117.97608Zm123.93994-45.37a29.404,29.404,0,0,1-.46,4.85v.06a16.39471,16.39471,0,0,1-2.82984,6.99005s-18.29-11.35-25.13012-13.09c-1.23-.31-.27-3.14,2.60009-6.57a38.7997,38.7997,0,0,1,22.59986-12.67,79.22407,79.22407,0,0,1,2.65014,11.9A52.03219,52.03219,0,0,1,225.81613,72.60608Zm-52.42993,25.07c13.92993-3.49,31.28,18.06,35.48,34.88,4.19995,16.83-3.17994,30.09-17.08985,33.56-13.93017,3.48-29.12011-4.17-33.31006-20.98C154.26632,128.3061,159.47628,101.16608,173.3862,97.67609Z"/><path class="cls-12" d="M106.54984,182.30373c.834.04074,37.73176,30.84782,37.73176,30.84782l77.92165,14.64887c-37.63285,27.27752-93.24972,3.09271-93.24972,3.09271a50.09723,50.09723,0,0,0,20.39434,14.0356c-42.35893-4.31-51.80348-32.117-51.80348-32.117.83927,6.90128,7.66113,21.44576,7.66113,21.44576-18.80038-14.20772-21.235-50.286-21.235-50.286S105.71589,182.263,106.54984,182.30373Z"/><path class="cls-11" d="M155.97358,202.76692c-27.36776-13.30574-35.73386-46.40882-35.815-46.73951q-.01265-.04279-.0212-.08665a.94667.94667,0,1,1,1.85826-.36279c.07743.32138,8.22974,32.56534,34.79116,45.49048,17.07417,8.30573,37.98872,6.96188,62.155-3.98932a.94218.94218,0,0,1,.76068,1.7183c-22.61927,10.24863-42.519,12.23308-59.22876,5.92408Q158.16778,203.85,155.97358,202.76692Z"/><path class="cls-11" d="M109.95639,163.64319c6.26617-24.77068,20.92841-11.87594,20.92841-11.87594-16.99506-18.81-20.98021,7.74847-20.98021,7.74847Z"/><path class="cls-11" d="M239.26986,149.87261c-.93734,7.21609-6.06871,15.802-6.06871,15.802s-26.88545-5.33513-16.00617-11.09083C228.07124,148.8098,240.2072,142.65652,239.26986,149.87261Z"/><polygon class="cls-10" points="170.156 279.885 173.631 283.22 176.632 286.111 183.544 292.754 192.735 282.776 196.228 278.986 196.868 278.291 193.458 271.176 191.762 267.618 189.529 262.957 187.816 259.39 185.323 254.174 177.763 254.072 175.465 261.855 174.196 266.182 173.01 270.203 171.833 274.196 170.156 279.885"/><path class="cls-9" d="M174.1958,266.18174a61.668,61.668,0,0,1,15.33364-3.22426l-1.71392-3.56717A65.86376,65.86376,0,0,0,175.465,261.855Z"/><path class="cls-9" d="M173.63053,283.22036l3.00189,2.89072a57.07119,57.07119,0,0,1,16.10272-3.33543l3.493-3.78941A59.71877,59.71877,0,0,0,173.63053,283.22036Z"/><path class="cls-9" d="M171.83314,274.19611c5.33673-1.12116,14.40735-2.27,21.62471-3.02044l-1.69537-3.55779c-5.20712.55589-12.95266,1.4824-18.75265,2.585Z"/><polygon class="cls-13" points="148.449 119.597 149.261 118.355 136.867 110.251 150.589 104.844 138.663 96.67 137.823 97.894 147.444 104.488 133.654 109.923 148.449 119.597"/><path class="cls-14" d="M210.48629,305.34607c-.37011.09-.73.17-1.10009.26-.55982.12-1.12989.25-1.7.37q-3.53979.75-7.1499,1.31c-1.24023.19-2.49023.37-3.74023.53a134.51945,134.51945,0,0,1-17.00977,1.07q-4.75524,0-9.44018-.33c-.68994-.05-1.36988-.1-2.05-.16-2.51978-.22-5.00977-.5-7.48975-.85-.36011-.05-.72021-.1-1.08008-.16-.16992-.02-.35009-.05-.52-.08-.31-.05-.62988-.1-.93994-.15l-.81006-38.6-.05-2.47-.09986-2.92-.08008-2.51-.18017-5.18,1.04.95,2.5,2.28,8.76,8.01,3.66015,3.34.03.03.10987.09,3.03,2.77.41993.38995,6.8601,6.25,7.95-8.19,1.43994-1.5.29-.29,3.67993-3.79.67016-.69,4.84009-4.98,2.88989-2.98,1.09009-1.13,1.85986-1.92.01-.01.55,8.34.33008,5.01Z"/><polygon class="cls-10" points="155.569 261.515 155.756 266.944 182.855 292.655 207.847 268.316 207.512 263.303 182.815 287.355 155.569 261.515"/><path class="cls-5" d="M225.87619,300.73609a1.22528,1.22528,0,0,1-.16993.07c-.56.2-1.12011.4-1.68994.6q-.64526.225-1.29.45c-.41992.14-.83007.28-1.25.41-.55.18-1.10009.36-1.66015.53-.69995.22-1.40991.44-2.11988.64-.71.21-1.42993.41-2.13989.61-.38013.11-.77.22-1.15014.32-1.3.35-2.61011.67-3.91993.98-.37011.09-.73.17-1.10009.26-.55982.12-1.12989.25-1.7.37q-3.53979.75-7.1499,1.31c-1.24023.19-2.49023.37-3.74023.53l3.75-32.39.70019-6.01v-.01l1.08008-9.26,2.12988-18.32995.6001-5.21.04981.15,1.72021,5.31Z"/><path class="cls-5" d="M168.29611,308.39606c-2.51978-.22-5.00977-.5-7.48975-.85-.36011-.05-.72021-.1-1.08008-.16-.16992-.02-.35009-.05-.52-.08-.31-.05-.62988-.1-.93994-.15a132.10932,132.10932,0,0,1-15.25-3.38c-.13012-.04-.26-.08-.39013-.11l13.51-58.73,1.38012-5.98.81006,5.21,2.25977,14.54,1.37011,8.87005.96,6.16Z"/><path class="cls-12" d="M192.83467,155.74258a4.84471,4.84471,0,0,0,1.83493-.35061c6.1454-2.48865,4.94383-17.31379,4.7873-18.99627a.92691.92691,0,0,0-1.84579.17237c.39087,4.19058.49764,15.43271-3.6373,17.10659-2.024.81522-6.14359-.33523-14.29493-10.4907a.92683.92683,0,0,0-1.44587,1.15995C184.36665,151.985,189.17114,155.74258,192.83467,155.74258Z"/><path class="cls-11" d="M227.54459,140.80977a3.797,3.797,0,0,0,1.27939-.21761c5.64233-2.00322,4.58552-17.30112,4.44618-19.03879a.84784.84784,0,0,0-.9238-.78627.85811.85811,0,0,0-.78627.92289c.48407,6.05718.01267,16.10634-3.30975,17.28575-1.39611.49447-4.79273-.22077-11.90174-10.55811a.85757.85757,0,0,0-1.4133.97176C220.20305,137.04987,224.34794,140.80977,227.54459,140.80977Z"/><path class="cls-5" d="M313.2463,185.63611a15.50084,15.50084,0,0,0-2.34008-1.5,15.72993,15.72993,0,0,0-2.57007-1.09,16.34355,16.34355,0,0,0-5.21-.84,16.7041,16.7041,0,0,0-16.69,16.68,16.30614,16.30614,0,0,0,.40992,3.66c0,.02.01.04.01.06a.11352.11352,0,0,0,.03.08c.06005.23.12011.45.17016.68,0,.02,0,.03.00977.04a16.72466,16.72466,0,0,0,11.99023,11.66c.00977.01.00977.01.02.01a16.33959,16.33959,0,0,0,4.04981.5h.16992a15.6224,15.6224,0,0,0,4.3-.62,16.66449,16.66449,0,0,0,5.65014-29.32Zm-4.68017,26.06a13.90635,13.90635,0,1,1,8.47021-12.81A13.8737,13.8737,0,0,1,308.56613,211.69611Z"/><path class="cls-5" d="M328.02633,149.23609a14.89718,14.89718,0,0,0-2.51-1.21,16.67661,16.67661,0,0,0-14.59009,29.83,15.95258,15.95258,0,0,0,2.47,1.26c.07006.03.13012.05.2.08a16.677,16.677,0,0,0,14.43017-29.96Zm-8.39013,28.31a13.905,13.905,0,1,1,13.90991-13.9A13.911,13.911,0,0,1,319.6362,177.54609Z"/><rect class="cls-5" x="306.71912" y="179.64882" width="8.34489" height="2.78028" transform="translate(10.4476 378.93312) rotate(-63.58497)"/><path class="cls-5" d="M326.52786,150.59834a1.391,1.391,0,0,0,1.27848-.84282l2.40948-5.62242a1.38991,1.38991,0,1,0-2.55515-1.09481l-2.40948,5.62242a1.39058,1.39058,0,0,0,1.27667,1.93763Z"/><polygon class="cls-15" points="7.788 168.044 36.274 174.246 61.28 194.002 32.024 186.965 7.788 168.044"/><polygon class="cls-11" points="60.663 187.121 58.14 192.804 32.921 186.739 31.498 186.398 30.772 185.831 30.861 180.943 34.023 180.709 60.663 187.121"/><path class="cls-16" d="M34.61951,182.1562c-2.83952,1.4679-1.69847,4.58292-1.69847,4.58292l-1.42271-.3415-.7261-.56664.089-4.88792,1.66866-1.23728,2.42212-1.79521,25.71051,9.21011-.58367,1.31525Z"/><polygon class="cls-17" points="10.311 162.358 38.797 168.56 63.803 188.316 34.547 181.279 10.311 162.358"/><rect class="cls-16" x="46.90346" y="174.71763" width="0.25955" height="23.75005" transform="translate(-145.39539 187.00047) rotate(-75.97396)"/><rect class="cls-16" x="46.2388" y="176.21536" width="0.25955" height="23.75005" transform="translate(-147.35204 187.49038) rotate(-75.97396)"/><path class="cls-15" d="M34.54886,181.278l-2.01893-1.57225L10.31028,162.36042a7.377,7.377,0,0,0-2.52223,5.68364l21.291,16.62065,2.77665,2.17.16887.13176c-.01638-.05274-.03277-.10546-.05126-.15345A4.38767,4.38767,0,0,1,34.54886,181.278Z"/><polygon class="cls-18" points="123.102 287.969 69.9 292.704 19.912 322.877 74.706 316.799 123.102 287.969"/><polygon class="cls-11" points="22.614 310.511 25.894 321.421 73.128 316.184 75.792 315.889 77.242 315.026 78.202 306.121 72.509 304.97 22.614 310.511"/><path class="cls-16" d="M71.09192,307.46331c4.82456,3.31983,2.03564,8.7202,2.03564,8.7202l2.66444-.29426,1.44987-.86336.95984-8.90527-2.74923-2.63195-3.99075-3.819L22.61387,310.511l.75911,2.52468Z"/><polygon class="cls-19" points="119.82 277.055 66.619 281.79 16.631 311.963 71.425 305.885 119.82 277.055"/><rect class="cls-16" x="25.75253" y="312.44104" width="43.51344" height="0.47553" transform="translate(-36.85161 7.87) rotate(-6.83071)"/><rect class="cls-16" x="26.61698" y="315.31602" width="43.51344" height="0.47553" transform="translate(-37.18742 7.99322) rotate(-6.83071)"/><path class="cls-18" d="M71.42185,305.88328l4.03063-2.39461,44.36938-26.42992s4.49206,4.76525,3.2804,10.91L80.58731,313.2945l-5.5451,3.30717-.33721.20075c.04188-.09212.08378-.18418.1284-.26717C78.11906,309.51464,71.42185,305.88328,71.42185,305.88328Z"/><polygon class="cls-20" points="273.132 68.146 311.043 36.814 363.313 24.223 323.491 55.707 273.132 68.146"/><polygon class="cls-11" points="353.54 17.872 358.453 27.141 324.126 54.281 322.19 55.813 320.682 56.186 314.289 50.974 317.273 46.536 353.54 17.872"/><path class="cls-16" d="M319.81523,47.25221c-1.0113,5.297,4.31067,7.0291,4.31067,7.0291l-1.93562,1.53176-1.50842.37292-6.39243-5.21155.09721-3.50325.1421-5.08431L353.54,17.87195l1.13684,2.14494Z"/><polygon class="cls-21" points="268.218 58.874 306.129 27.541 358.399 14.95 318.576 46.434 268.218 58.874"/><rect class="cls-16" x="318.60307" y="35.18593" width="40.06796" height="0.43788" transform="translate(49.44991 215.12509) rotate(-37.82823)"/><rect class="cls-16" x="319.89765" y="37.62849" width="40.06796" height="0.43788" transform="translate(48.22396 216.43235) rotate(-37.82823)"/><path class="cls-20" d="M318.57649,46.43087l-4.18985,1.04032-46.1673,11.40607s.142,6.02854,4.91268,9.269l44.238-10.92906,5.77244-1.42282.35079-.08676c-.08705-.03323-.17408-.06641-.257-.09189C316.54027,53.144,318.57649,46.43087,318.57649,46.43087Z"/></g></g></svg>