<svg xmlns="http://www.w3.org/2000/svg" viewBox="0 0 370 350"><defs><style>.cls-1{isolation:isolate;}.cls-2,.cls-3{fill:#8dc63f;}.cls-2,.cls-9{opacity:0.2;}.cls-4{fill:#fff;}.cls-5{fill:#e63f31;}.cls-6{fill:#27aae1;}.cls-7{fill:#e83d32;}.cls-8{fill:#be1e2d;}.cls-10,.cls-9{fill:#414042;}.cls-9{mix-blend-mode:multiply;}.cls-11{fill:#4a494a;}.cls-12{fill:#808282;}.cls-13{fill:#6d6e71;}.cls-14{fill:#4d4e4e;}.cls-15{fill:#7b7b7b;}.cls-16{fill:#006838;}</style></defs><g class="cls-1"><g id="Layer_1" data-name="Layer 1"><circle class="cls-2" cx="179.9154" cy="173.92845" r="166.46094"/><path class="cls-3" d="M315.21979,188.52607a134.50481,134.50481,0,0,1-15.73,50.95q-1.155,2.115-2.37988,4.18c-.71973,1.22-1.46,2.43-2.21973,3.62-.1001.16-.20019.32-.30029.47q-2.29469,3.57-4.79,6.97-2.77515,3.765-5.77979,7.32v.01c-.47021.55-.94042,1.1-1.41992,1.65a136.40258,136.40258,0,0,1-16.47021,15.87c-.12988.11-.26026.21-.39014.32-.29.24-.56982.47-.85986.7-1.02979.82-2.08008,1.63-3.14014,2.41-.37988.29-.77.58-1.16015.86-.4795.36-.96973.71-1.46,1.05-.32959.25-.65966.48-1,.71-.00976.01-.01953.01-.02978.02-.64014.45-1.29.9-1.93994,1.34q-2.23536,1.5-4.54,2.91c-1.6001.99-3.21973,1.95-4.85986,2.86-.39991.23-.81006.45-1.21.67-1.20019.66-2.3999,1.29-3.62011,1.91-.06006.03-.10987.05-.16016.08-.75.38-1.50976.75-2.27,1.11-.0498.02-.08984.05-.13965.07q-1.08031.51-2.16015,1.02c-.77.35-1.54.7-2.32032,1.04-.61962.27-1.25.54-1.87988.8-.25976.11-.52978.22-.79.33-.67969.28-1.35986.55-2.04.82-.21972.09-.4497.18-.66992.27-.12012.04-.23.09-.34961.13-.30029.11-.61035.23-.91015.34-.36036.13-.71.26-1.07032.39-.29.11-.58007.22-.86963.32-.27.1-.53027.19-.80029.28-.59961.21-1.19971.42-1.81006.62a.55453.55453,0,0,1-.11963.04c-.62011.21-1.25.41-1.88037.61-.3999.13-.81006.26-1.21.38q-3.78,1.17-7.66992,2.11c-.58984.14-1.16992.28-1.75977.41-.03027.01-.06.01-.09033.02-.16992.04-.34961.08-.52.12-.48.11-.96.21-1.43994.31-.25976.06-.52.12-.79.17-.3999.08-.7998.16-1.21.24-.44971.09-.8999.18-1.34961.26q-.84081.165-1.68017.3c-.0503.01-.10987.02-.16993.03-1.07031.18-2.14013.35-3.22021.51-1.02.15-2.04.29-3.06006.41-.11963.01-.23.03-.3501.04-.06982.01-.1499.02-.21972.03-.78028.1-1.58008.19-2.37012.27a135.28868,135.28868,0,0,1-18.27979.58c-2.36035-.08-4.75-.23-7.14013-.44-.62012-.05-1.24024-.11-1.85987-.17-.41015-.05-.81-.09-1.21044-.13-.38965-.05-.77979-.09-1.16993-.14-.06982-.01-.1499-.02-.21972-.03-.41016-.04-.82032-.1-1.22022-.15q-.46509-.06-.92969-.12c-.87011-.12-1.74023-.25-2.60009-.38-.74024-.12-1.49024-.24-2.23-.37-.33008-.06-.64991-.12-.98-.18a.49659.49659,0,0,1-.16016-.03c-1.04981-.19-2.1001-.38995-3.1499-.61-1.06983-.22-2.14014-.46-3.21-.71q-1.59009-.375-3.18018-.78c-.58984-.15-1.17969-.31-1.77-.47-.10986-.03-.23-.06005-.33984-.09-.33008-.09-.64991-.18-.98-.28-.54981-.15-1.1001-.31-1.64991-.47-.32031-.1-.64013-.19-.96044-.3q-.69-.195-1.37989-.42c-.68994-.22-1.38965-.45-2.08008-.68l-.08984-.03c-.75-.24-1.5-.5-2.23975-.77-.57031-.2-1.13037-.41-1.70019-.63-.19971-.07-.3999-.15-.60986-.22-3.77-1.43-7.47022-3.01-11.07032-4.75-.0498-.03-.10986-.05-.15966-.08-.29-.14-.58008-.29-.87012-.43-1.04-.51-2.06006-1.04-3.08008-1.57-1.93994-1.02-3.85986-2.09-5.73975-3.2-1.88037-1.12-3.73046-2.27-5.55029-3.47s-3.6001-2.44-5.35986-3.73c-.33008-.24-.66992-.49-1-.75-1.41016-1.04-2.79-2.12-4.16016-3.22-.59961-.47-1.18994-.96-1.77978-1.45-.51026-.42-1.01026-.85-1.51026-1.28-.21-.18-.40967-.35-.60986-.53-.33008-.29-.66992-.58-1-.88-.43994-.39-.87988-.78-1.31006-1.19-.18994-.16-.37988-.33-.56006-.5l-.00976-.01c-.59034-.54-1.16993-1.09-1.74024-1.63995-.12988-.12-.25-.24-.36963-.36005-.56006-.53-1.11035-1.06995-1.66015-1.62-.41993-.42-.8501-.86-1.27-1.29l-.29-.29c-.16016-.16-.31006-.32-.47022-.49-.40966-.42-.81982-.85-1.21-1.28-.48-.51-.96-1.03-1.42969-1.55-.47021-.52-.94042-1.04-1.40039-1.57-.35986-.4-.6997-.8-1.0498-1.2-.52-.6-1.02979-1.21-1.54-1.82-.06982-.09-.1499-.18-.23-.28-.6499-.78-1.27979-1.57-1.90967-2.37-.1001-.13-.21045-.27-.31054-.4-.56983-.72-1.11963-1.44-1.65967-2.17-.62989-.84-1.25-1.69-1.85987-2.54-.05029-.06-.09033-.13-.14013-.19-.60987-.86-1.2002-1.72-1.79-2.6-.31006-.45-.60987-.9-.91992-1.36-.3003-.46-.6001-.92-.89014-1.38-.60986-.95-1.21-1.9-1.79981-2.87-.5-.82-.99023-1.64-1.47021-2.48q-2.31006-3.99-4.3501-8.13c-.05957-.13-.10986-.25-.16992-.37-.25-.51-.5-1.03-.73975-1.54-.83007-1.76-1.63037-3.55-2.38037-5.35q-1.48461-3.51-2.75976-7.13a132.77589,132.77589,0,0,1-4.91992-17.63,135.57838,135.57838,0,0,1-2.4502-17.78c-.0498-.78-.1001-1.56-.13965-2.34,0-.04-.01025-.09-.01025-.13-.02979-.61-.06006-1.22-.08008-1.83-.04-1.17-.06982-2.35-.08008-3.54-.02978-2.35.01026-4.72.1001-7.1.03027-.88.08008-1.75.12988-2.63.06006-.97.12989-1.95.21-2.93.02-.27.04-.53.06006-.8.03028-.27.05029-.54.08008-.81.02979-.37.06982-.74.1001-1.12q.10473-1.08.24023-2.16.08936-.82506.21-1.65.08935-.795.21-1.59.12012-.9.26954-1.8.12011-.825.2705-1.65c.19971-1.24.42969-2.47.66992-3.7.12012-.58.23975-1.17.35987-1.76q.87012-4.14,1.98974-8.18.3003-1.09506.63038-2.19c.15966-.57.32959-1.13.50976-1.69.1499-.5.31006-.99.47022-1.49.04-.13.08007-.27.12988-.4.16015-.49.31982-.98.49023-1.47q.20947-.61506.41992-1.23c.21973-.62.44-1.25.66993-1.87.02978-.07.0498-.15.08007-.22.42969-1.18.87989-2.34,1.33985-3.5q.43506-1.09506.8999-2.19c.21-.51.43018-1.03.66016-1.54.16992-.4.35009-.8.52978-1.19995.5503-1.24005,1.12989-2.47,1.72022-3.69.22021-.47.4497-.93.68017-1.39q2.80445-5.625,6.09961-10.93c.44043-.71.87989-1.41,1.34033-2.11.40967-.64.83985-1.28,1.25977-1.92.5-.74,1.01025-1.48,1.52-2.21.2998-.44.60986-.87.91992-1.30005.74024-1.04,1.5-2.06,2.28027-3.08.35987-.48.73-.95,1.09961-1.42.12012-.16.25-.31995.37012-.47.43994-.55.87012-1.1,1.32031-1.64.56983-.7,1.13965-1.39,1.73-2.08.23-.28.46973-.56.71-.83.5498-.63,1.10009-1.26,1.65966-1.89.4502-.51.91016-1.01,1.38037-1.51.39991-.43.78956-.85,1.19-1.27a134.19438,134.19438,0,0,1,11.41015-10.71c.31983-.27.63965-.54.96973-.8.87012-.72,1.75976-1.43,2.6499-2.12.8501-.67,1.71-1.32,2.58008-1.96.06006-.05.12012-.09.18017-.14.88965-.66,1.79981-1.31,2.71-1.94.91992-.65,1.85986-1.29,2.7998-1.92.46-.3.91016-.6,1.37012-.9.29-.19.58984-.38.89013-.57.40967-.26.81983-.52,1.23975-.78.29981-.19.61035-.38.91016-.56.50976-.31,1.02978-.62,1.54-.93.52-.3,1.04-.61,1.56-.91.46-.27.92969-.53,1.39991-.79.46972-.26.93994-.52,1.41992-.78.93017-.51,1.87988-1,2.81982-1.49.03028-.01.0503-.03.08008-.04.34033-.18.68018-.35,1.03027-.52,1.00977-.51,2.02-1,3.03956-1.48a.45885.45885,0,0,0,.10009-.05c.99024-.46,1.98-.91,2.98-1.35.5503-.24,1.11035-.48,1.66016-.72a.78392.78392,0,0,0,.16016-.07c1.06-.44,2.12988-.88,3.1997-1.3.56006-.22,1.12012-.44,1.68994-.65q5.23536-1.98,10.67041-3.52c.71-.21,1.41993-.4,2.13965-.59q5.20533-1.395,10.57032-2.37a134.67622,134.67622,0,0,1,24.04-2.16c2.87989,0,5.77979.1,8.69.28q2.54955.165,5.09961.42c.47021.05.93017.1,1.40039.16a134.4488,134.4488,0,0,1,50.66992,16.19c.25976.14.52.29.77978.44,1.99024,1.12,3.93994,2.3,5.86035,3.52a133.5623,133.5623,0,0,1,11.37989,8.09q4.78491,3.795,9.18994,7.99a134.83946,134.83946,0,0,1,14.50976,16.18c1.22022,1.61,2.40039,3.23,3.54,4.88,1.47022,2.12,2.87012,4.28,4.22022,6.48A134.34723,134.34723,0,0,1,315.21979,188.52607Z"/><polygon class="cls-4" points="259.376 250.904 254.233 220.286 223.312 218.629 219.586 250.284 223.312 273.687 256.555 266.904 259.376 250.904"/><path class="cls-4" d="M278.14094,237.05932c26.72539,4.63328,51.01311-11.39363,52.05521-12.09191l-4.07911-6.08248,2.03955,3.04124-2.03637-3.04287c-.23628.15718-23.91438,15.73019-48.25619,10.66965-13.152-2.725-24.27339-11.00026-33.05517-24.59647L238.65758,208.93c9.89791,15.32406,22.60817,24.67894,37.77682,27.80585C277.00279,236.85257,277.57477,236.96116,278.14094,237.05932Z"/><path class="cls-4" d="M173.51432,233.36576c26.72539,4.63328,51.01311-11.39363,52.05521-12.09191l-4.07911-6.08248,2.03956,3.04124-2.03637-3.04287c-.23628.15718-23.91439,15.73018-48.2562,10.66965-13.152-2.725-24.27339-11.00026-33.05517-24.59647l-6.15128,3.97355c9.89791,15.32406,22.60817,24.67894,37.77682,27.80585C172.37618,233.159,172.94815,233.2676,173.51432,233.36576Z"/><path class="cls-5" d="M325.66252,227.72191c-.22484,3.29545-.52652,9.03425,2.6955,11.08688,6.20459,3.97569,4.76347-8.29672,4.5097-11.85069a88.148,88.148,0,0,0,4.60165,12.78868,26.307,26.307,0,0,0,3.72778,6.27021c1.17044,1.32663,4.29616,4.1862,6.1811,2.49436,1.87135-1.67965-.01209-6.2414-.7806-8.11576a24.20157,24.20157,0,0,0-11.81493-12.4021c3.90945,1.80668,7.86443,3.52263,11.91034,5.0027a62.451,62.451,0,0,0,7.84321,2.40176c2.06121.45891,5.10294,1.26,7.07506.03821,5.56438-3.44907-7.52932-8.68112-9.57613-9.506-8.02277-3.23336-14.69474-3.73117-23.27048-3.986l-.608-.01807c.13408-4.27635.92365-17.8276-5.008-18.86023-7.75576-1.08683-1.40238,17.569,2.27921,20.49117Z"/><path class="cls-6" d="M225.759,263.76456c1.69141,0,1.9043-1.45068,2.22168-3.604.17871-1.21192.4209-2.94385.7041-5.022.56543-4.14258,1.2959-9.667,2.01856-15.19189,1.07812-8.23389,2.13867-16.46875,2.60937-20.12695l12.11719,1.43505,5.00195,38.9961,3.9668-.50879-5.39844-42.09277-19.15136-2.26807-.251,1.96484c-2.14941,16.76709-5.47656,42.28907-5.83691,43.87842a1.97688,1.97688,0,0,1,2.1416-1.45019l-.21582,1.92334h-2.01465l1.88086,2.06C225.62421,263.76261,225.69257,263.76456,225.759,263.76456Z"/><polygon class="cls-4" points="227.611 208.888 174.636 188.818 160.206 125.256 155.947 105.01 133.497 67.759 144.664 57.886 180.115 63.237 219.442 79.028 265.635 39.088 289.031 18.895 290.02 71.641 315.644 111.27 310.549 153.258 274.957 198.368 227.611 208.888"/><path class="cls-7" d="M347.27464,130.633s-5.26682-19.12157-27.25842-28.77353c0,0,8.348-1.476,11.03336-.16994a45.0095,45.0095,0,0,0-23.84032-11.51277L299.038,65.16363l11.31686,1.53793s-1.3596-4.0653-12.69544-7.991c4.99327-15.2437-3.18877-40.3528-3.18877-40.3528-34.74,2.358-44.01594,22.18733-46.0572,28.28053a159.28024,159.28024,0,0,0-30.319,9.28179s6.27175-7.91879,14.18148-10.43286a48.97651,48.97651,0,0,0-36.853,18.95255s-37.34025-17.18779-67.5786-2.0952c0,0-.12827,16.54626,27.91917,52.46076,0,0-19.53094,18.54183-21.86959,36.98752,0,0,9.38014-17.87607,16.0289-22.63475,0,0-23.44985,36.35165-7.015,58.27367,0,0-2.41964-15.066,1.39772-20.20289,0,0,.31821,14.33614,5.63988,26.02857q-.39016-.17318-.78637-.339a13.99352,13.99352,0,0,1,2.06235,2.09062c.05384.06718.09124.13185.14321.19888a37.465,37.465,0,0,1,6.2182,1.19641c-1.56266-4.35777-2.722-9.13589-1.81932-12.21976a132.03724,132.03724,0,0,0,6.69661,14.04764c.8014.36039,1.60892.69887,2.39291,1.1219,4.81462,2.5972,9.36581,5.38,13.86545,8.38861q3.71024.40036,7.41822.82007c11.88848,3.16689,19.72362,6.04308,32.71868,7.30569,11.88472,1.1546,23.58743,2.59763,35.378,4.41735,5.67534.87559,9.69518-.849,15.92521-1.85815,8.49681-1.37623,13.41018-5.34364.18322,2.00518a51.5517,51.5517,0,0,1,10.98354-4.5393c-.04893-.026-.14305-.07692-.14305-.07692l-.00488-.00466c.74112-.32743,1.48849-.66207,2.24519-1.01477a28.64161,28.64161,0,0,0,5.58175-3.47654c4.68029-3.57449,11.38869-10.28679,16.43078-21.83253,0,0-1.07956,12.645-2.75115,14.77077,0,0,14.72274-12.69623,16.57-27.08576,0,0-.3958,12.76466-1.22612,15.35089,0,0,15.66644-17.56277,18.26795-38.77867,0,0,.94351,7.3257.29151,8.819,0,0,17.95159-11.61649,2.05263-36.22613A12.27794,12.27794,0,0,1,347.27464,130.633ZM161.45233,98.89322c-12.50561-7.98984-20.85323-29.35366-20.85323-29.35366,15.2518-7.83491,39.65149,4.70372,39.65149,4.70372C169.112,83.52674,161.45233,98.89322,161.45233,98.89322Zm94.24419,49.17718c-14.46908,3.77442-30.39073-4.01149-34.9536-21.5039-4.56206-17.49345.56719-45.85331,15.03586-49.62709,14.46847-3.77358,32.79746,18.4675,37.36095,35.95968C277.70114,130.39151,270.16394,144.29644,255.69652,148.0704Zm31.13939-85.41689s-19.187-11.613-26.33792-13.34989c-3.08505-.74936,6.78881-16.73518,26.05358-20.34185C286.55157,28.96177,294.43363,52.42021,286.83591,62.65351Z"/><path class="cls-7" d="M143.53707,167.88634s2.94277,37.57937,22.69638,52.17733c0,0-7.27475-15.08675-8.22421-22.26774,0,0,10.154,28.8757,54.35528,32.89173a52.21394,52.21394,0,0,1-21.4166-14.39932s58.24053,24.58555,97.1438-4.27379L206.72486,197.6249s-38.80288-31.69666-39.67315-31.72939C166.18187,165.863,143.53707,167.88634,143.53707,167.88634Z"/><path class="cls-4" d="M223.50917,188.65625c17.48864,6.3957,38.20423,4.106,61.67022-6.83477a.98548.98548,0,0,0-.83288-1.78633c-25.06784,11.687-46.84908,13.32114-64.73783,4.85414-27.83187-13.17195-36.68937-46.68854-36.77573-47.02557a.98558.98558,0,0,0-1.9097.48836c.08838.346,9.18293,34.75523,37.842,48.3186Q221.09622,187.774,223.50917,188.65625Z"/><path class="cls-4" d="M170.2957,142.10586s3.855-27.72581,21.78357-8.324c0,0-15.42785-13.26659-21.68323,12.61008"/><path class="cls-4" d="M282.068,135.7645c-11.273,6.13821,16.80639,11.38125,16.80639,11.38125s5.2548-8.98973,6.1515-16.53648C305.92108,123.05924,293.3389,129.62468,282.068,135.7645Z"/><ellipse class="cls-5" cx="245.15133" cy="134.57033" rx="5.31264" ry="8.61816" transform="translate(-33.47349 110.5587) rotate(-23.83807)"/><ellipse class="cls-4" cx="284.42686" cy="116.68559" rx="5.31264" ry="8.61816" transform="translate(-22.89477 124.9063) rotate(-23.83807)"/><path class="cls-6" d="M266.13,279.56611c-.12988.11-.26026.21-.39014.32-.29.24-.56982.47-.85986.7-1.02979.82-2.08008,1.63-3.14014,2.41-.37988.29-.77.58-1.16015.86-.4795.36-.96973.71-1.46,1.05-.32959.25-.65966.48-1,.71-.00976.01-.01953.01-.02978.02-.64014.45-1.29.9-1.93994,1.34q-2.23536,1.5-4.54,2.91c-1.6001.99-3.21973,1.95-4.85986,2.86-.39991.23-.81006.45-1.21.67-1.20019.66-2.3999,1.29-3.62011,1.91-.06006.03-.10987.05-.16016.08-.75.38-1.50976.75-2.27,1.11-.0498.02-.08984.05-.13965.07q-1.08031.51-2.16015,1.02c-.77.35-1.54.7-2.32032,1.04-.61962.27-1.25.54-1.87988.8-.25976.11-.52978.22-.79.33-.67969.28-1.35986.55-2.04.82-.21972.09-.4497.18-.66992.27-.12012.04-.23.09-.34961.13-.30029.11-.61035.23-.91015.34-.36036.13-.71.26-1.07032.39-.29.11-.58007.22-.86963.32-.27.1-.53027.19-.80029.28-.59961.21-1.19971.42-1.81006.62a.55453.55453,0,0,1-.11963.04c-.62011.21-1.25.41-1.88037.61-.3999.13-.81006.26-1.21.38q-3.78,1.17-7.66992,2.11c-.58984.14-1.16992.28-1.75977.41l8.54981-56.21c17.23,20.13,39.79.62,39.79.62Z"/><circle class="cls-8" cx="238.50684" cy="226.75252" r="4.06892"/><path class="cls-8" d="M239.20927,225.51358s20.27589-16.85076,20.594,1.23894-20.594,1.94957-20.594,1.94957Z"/><path class="cls-8" d="M237.33565,225.51358s-20.2759-16.85076-20.594,1.23894,20.594,1.94957,20.594,1.94957Z"/><path class="cls-6" d="M244.86771,35.36165l-7.21382-21.5304c1.7851-2.19439,3.53774-5.17554.63441-5.90132-3.21881-.8049-3.39455,3.3559-3.17908,6.09426L186.8593,31.74847c-2.10436-1.76512-5.63916-4.08084-6.8534-.96892-1.01347,2.59767,1.90955,3.03108,4.59669,2.92741l10.14595,19.7993Z"/><path class="cls-9" d="M204.46087,42.10518q-3.9016-6.97785-7.80373-13.956l-9.79784,3.59927c-2.10436-1.76512-5.63916-4.08084-6.8534-.96892-1.01347,2.59767,1.90955,3.03108,4.59669,2.92741l10.14595,19.7993,14.29468-5.17506A31.8992,31.8992,0,0,1,204.46087,42.10518Z"/><path class="cls-4" d="M249.57278,283.87816l-2.58651-15.09775a2.26132,2.26132,0,0,0-2.59953-1.84349l-2.549.43261c.28305.06719.568.13073.8444.21385a13.74666,13.74666,0,0,1,3.17246,1.34717l-1.66075,3.80356a6.84854,6.84854,0,0,0-4.49014-1.66024c-1.74389-.10127-2.66337.53929-2.74365,1.93483a1.86241,1.86241,0,0,0,.77918,1.5224,17.58016,17.58016,0,0,0,3.57772,1.99856,11.3739,11.3739,0,0,1,3.01076,1.90505,6.59585,6.59585,0,0,1,.90609,1.00859,6.0507,6.0507,0,0,1,1.01813,3.90294,5.77789,5.77789,0,0,1-1.41264,3.62068l2.88917-.4922A2.25536,2.25536,0,0,0,249.57278,283.87816Z"/><path class="cls-4" d="M240.26715,281.32651a13.80167,13.80167,0,0,0-3.32743-2.038,14.06035,14.06035,0,0,1-2.52363-1.54074,6.03985,6.03985,0,0,1-2.64885-5.22422,5.19534,5.19534,0,0,1,1.29149-3.29474,5.98132,5.98132,0,0,1,.44673-.43794l-4.22013.73037a2.24866,2.24866,0,0,0-1.84428,2.59673l2.59332,15.09416a2.24985,2.24985,0,0,0,2.59418,1.83561l1.735-.29356c-.04714-.01206-.09425-.024-.13839-.03676a17.20585,17.20585,0,0,1-3.22349-1.61631l2.01528-3.8796a7.95356,7.95356,0,0,0,4.96219,2.07252c1.9582.11245,2.96809-.5234,3.05076-1.91029A2.58281,2.58281,0,0,0,240.26715,281.32651Z"/><path class="cls-10" d="M62.65942,142.44872H149.386a0,0,0,0,1,0,0v25.1986a22.00673,22.00673,0,0,1-22.00673,22.00673H62.65942a0,0,0,0,1,0,0V142.44872A0,0,0,0,1,62.65942,142.44872Z" transform="translate(212.04541 332.10277) rotate(-180)"/><rect class="cls-11" x="7.20433" y="208.9493" width="32.48263" height="14.88386" rx="6.32748"/><path class="cls-12" d="M31.63281,214.57153H61.083a0,0,0,0,1,0,0v3.6394a0,0,0,0,1,0,0H31.63281a1.8197,1.8197,0,0,1-1.8197-1.8197v0A1.8197,1.8197,0,0,1,31.63281,214.57153Z"/><path class="cls-13" d="M128.74011,142.44872H149.386a0,0,0,0,1,0,0v30.57114a16.63419,16.63419,0,0,1-16.63419,16.63419h-4.01169a0,0,0,0,1,0,0V142.44872A0,0,0,0,1,128.74011,142.44872Z" transform="translate(278.12611 332.10277) rotate(-180)"/><rect class="cls-12" x="137.81171" y="243.99883" width="6.21967" height="12.29272" transform="translate(281.84309 500.29037) rotate(-180)"/><path class="cls-13" d="M72.90047,189.65405h80.54622a6.4224,6.4224,0,0,1,6.4224,6.4224v41.5a6.4224,6.4224,0,0,1-6.4224,6.4224H123.30454a7.35042,7.35042,0,0,0-7.35042,7.35042v36.89924a7.35042,7.35042,0,0,0,7.35042,7.35042h42.76771a6.4224,6.4224,0,0,1,6.42239,6.4224V319.917a6.42239,6.42239,0,0,1-6.42239,6.42239H72.90047Z"/><rect class="cls-14" x="147.13087" y="198.54044" width="27.98272" height="38.38717" transform="translate(322.24447 435.46804) rotate(-180)"/><rect class="cls-12" x="162.45431" y="198.54044" width="12.65929" height="38.38717" transform="translate(337.56791 435.46804) rotate(-180)"/><path class="cls-10" d="M46.82555,189.65405h80.54622a6.4224,6.4224,0,0,1,6.4224,6.4224v41.5a6.4224,6.4224,0,0,1-6.4224,6.4224H97.22962a7.35041,7.35041,0,0,0-7.35042,7.35042v36.89924a7.35041,7.35041,0,0,0,7.35042,7.35042h42.7677a6.4224,6.4224,0,0,1,6.4224,6.4224V319.917a6.42239,6.42239,0,0,1-6.4224,6.42239H46.82555Z"/><path class="cls-4" d="M93.35932,170.433h1.13243a8.82028,8.82028,0,0,1,8.82028,8.82028V188.856a0,0,0,0,1,0,0H84.539a0,0,0,0,1,0,0v-9.60269a8.82028,8.82028,0,0,1,8.82028-8.82028Z"/><path class="cls-4" d="M88.92485,180.99614a5.93825,5.93825,0,1,1-5.93755-5.82684A5.88958,5.88958,0,0,1,88.92485,180.99614Zm-1.99311,0A3.9448,3.9448,0,1,0,82.9873,184.866,3.91239,3.91239,0,0,0,86.93174,180.99614Z"/><path class="cls-9" d="M103.31211,179.1707V188.856h-5.4595c.72083-4.05912,1.57161-13.312-4.21375-18.42289h.7695A8.822,8.822,0,0,1,103.31211,179.1707Z"/><path class="cls-4" d="M93.35932,152.4734h1.13243a8.82028,8.82028,0,0,1,8.82028,8.82028v9.60269a0,0,0,0,1,0,0H84.539a0,0,0,0,1,0,0v-9.60269A8.82028,8.82028,0,0,1,93.35932,152.4734Z"/><path class="cls-4" d="M88.92485,163.03651a5.93824,5.93824,0,1,1-5.93755-5.82685A5.88958,5.88958,0,0,1,88.92485,163.03651Zm-1.99311,0a3.9448,3.9448,0,1,0-3.94444,3.86987A3.91239,3.91239,0,0,0,86.93174,163.03651Z"/><path class="cls-9" d="M103.31211,161.21106v9.68527h-5.4595c.72083-4.05912,1.57161-13.312-4.21375-18.42289h.7695A8.822,8.822,0,0,1,103.31211,161.21106Z"/><path class="cls-4" d="M140.42884,260.74655h2.12822a16.5763,16.5763,0,0,1,16.5763,16.5763v18.04673a0,0,0,0,1,0,0H123.85254a0,0,0,0,1,0,0V277.32285A16.5763,16.5763,0,0,1,140.42884,260.74655Z" transform="translate(282.9859 556.11612) rotate(-180)"/><path class="cls-4" d="M150.891,275.51791a11.16,11.16,0,1,1,11.15866,10.95061A11.06851,11.06851,0,0,1,150.891,275.51791Zm3.74573,0a7.41362,7.41362,0,1,0,7.41293-7.2728A7.35269,7.35269,0,0,0,154.63668,275.51791Z"/><path class="cls-9" d="M123.85239,278.94853v-18.2019h10.26026c-1.35468,7.62846-2.95359,25.01777,7.91906,34.62287h-1.44615A16.57945,16.57945,0,0,1,123.85239,278.94853Z"/><rect class="cls-13" x="81.14213" y="204.6012" width="32.46556" height="6.09138" rx="3.04569" transform="translate(194.74983 415.29379) rotate(-180)"/><rect class="cls-13" x="81.14213" y="214.68833" width="32.46556" height="6.09138" rx="3.04569" transform="translate(194.74983 435.46804) rotate(180)"/><rect class="cls-13" x="81.14213" y="224.77546" width="32.46556" height="6.09138" rx="3.04569" transform="translate(194.74983 455.6423) rotate(180)"/><path class="cls-15" d="M48.92694,182.62247a13.33836,13.33836,0,0,1,13.32324-13.32324h43.251a13.33836,13.33836,0,0,1,13.32324,13.32324v8.09814H48.92694Zm67.76465,0A11.20281,11.20281,0,0,0,105.50116,171.432h-43.251a11.20281,11.20281,0,0,0-11.19043,11.19043v5.96533h65.63184Z"/><path class="cls-10" d="M29.24755,242.90477H48.64418a0,0,0,0,1,0,0v64.96971a18.46492,18.46492,0,0,1-18.46492,18.46492h-.93171a0,0,0,0,1,0,0V242.90477a0,0,0,0,1,0,0Z" transform="translate(77.89173 569.24416) rotate(-180)"/><rect class="cls-10" x="150.89095" y="303.25693" width="14.77424" height="3.40416" rx="1.70208" transform="translate(316.55614 609.91803) rotate(180)"/><rect class="cls-10" x="150.89095" y="307.97316" width="14.77424" height="3.40416" rx="1.70208" transform="translate(316.55613 619.35047) rotate(-180)"/><rect class="cls-10" x="150.89095" y="312.68938" width="14.77424" height="3.40416" rx="1.70208" transform="translate(316.55613 628.78292) rotate(-180)"/><circle class="cls-14" cx="168.90638" cy="212.09065" r="4.30059"/><circle class="cls-14" cx="168.90638" cy="223.18912" r="4.30059"/><circle class="cls-16" cx="62.64755" cy="64.2249" r="42.93899"/><path class="cls-4" d="M72.28557,54.35609c.32491-1.63963-.1444-2.02169-1.75425-1.49014-4.36672,1.44185-8.77846,2.75049-13.19154,4.04659a2.38743,2.38743,0,0,0-1.99387,2.093c-.94671,5.397-2.05983,10.765-2.99547,16.16382-.90826,5.24081-4.00384,8.46657-9.0709,9.21292a8.41924,8.41924,0,0,1-8.16886-4.19017,6.01874,6.01874,0,0,1,3.79509-8.61841,9.31161,9.31161,0,0,1,9.76393,2.91008c.31429.36071.42594,1.16267,1.10653.92431.54655-.19142.54966-.8498.57938-1.38328.24915-4.47228.51621-8.94369.736-13.41743.15334-3.12173.27855-6.246.3378-9.3706.02161-1.13906.43228-1.76737,1.57207-1.92988q11.46094-1.634,22.91966-3.28352c1.45773-.20881,2.91947-.3912,4.37438-.61776,1.08056-.16827,1.59518.19839,1.39715,1.3366-.04043.23237-.09765.4619-.13541.69463-.55991,3.45022-.55724,3.477-3.99412,3.76075-.91629.07565-1.33651.37761-1.48569,1.33927-.91215,5.88012-1.94924,11.74123-2.82716,17.62621-1.00372,6.72819-7.903,10.78233-13.6273,7.919-3.2219-1.61159-4.777-4.75914-3.884-7.86121.77-2.67449,3.86333-4.435,7.23669-4.21656a8.90159,8.90159,0,0,1,6.64248,3.21439c.27808.33619.46216.93823,1.06724.73387.53484-.18064.53608-.7198.57-1.19251C71.60113,63.93951,71.94519,59.11878,72.28557,54.35609Z"/><polygon class="cls-16" points="99.74 82.814 119.887 105.191 89.623 94.003 99.74 82.814"/></g></g></svg>