<svg xmlns="http://www.w3.org/2000/svg" viewBox="0 0 370 350"><defs><style>.cls-1{isolation:isolate;}.cls-2,.cls-3{fill:#f6dfb5;}.cls-2{opacity:0.4;}.cls-4{fill:#6d3930;}.cls-5{fill:#5a3026;}.cls-6{fill:#eda23e;}.cls-7{fill:#a6a5a5;}.cls-8{fill:#fbb040;}.cls-9{fill:#fff8dd;}.cls-10{opacity:0.1;mix-blend-mode:multiply;}.cls-11{fill:#fff;}.cls-12{fill:#e63f31;}.cls-13{fill:#58c8eb;}.cls-14{fill:#8dc63f;}.cls-15{fill:#f6a2b4;}.cls-16{fill:#e73e32;}.cls-17{fill:#ba6250;}</style></defs><g class="cls-1"><g id="Layer_1" data-name="Layer 1"><circle class="cls-2" cx="179.9154" cy="173.92845" r="166.46094"/><path class="cls-3" d="M315.2153,188.52607a134.34953,134.34953,0,0,1-15.73,50.95q-1.155,2.115-2.38037,4.18c-.71,1.22-1.46,2.43-2.21,3.62-.10987.16-.21.32-.31006.47q-2.27929,3.57-4.79,6.97-2.77441,3.765-5.77979,7.32v.01q-.70531.825-1.41015,1.65a136.44949,136.44949,0,0,1-16.48,15.87c-.12989.11-.25977.21-.38965.32-.29.24-.57032.47-.86035.7-1.02.82-2.08008,1.63-3.13965,2.41-.38037.29-.77.58-1.16016.86-.47021.36-.97021.71-1.46,1.05-.33008.25-.66016.48-1,.71a.08022.08022,0,0,1-.03027.02c-.63965.45-1.29.9-1.93994,1.34q-2.23463,1.5-4.54,2.91c-1.6001.99-3.21,1.95-4.85987,2.86-.39013.23-.81006.45-1.21.67-1.20019.66-2.39013,1.29-3.62012,1.91-.06.03-.0996.05-.16015.08-.75.38-1.50977.75-2.26953,1.11-.0503.02-.09033.05-.13037.07-.73.34-1.44971.68-2.16993,1.02-.77.35-1.54.7-2.31982,1.04-.62012.27-1.25.54-1.87988.8-.26026.11-.53028.22-.79.33-.68018.28-1.36035.55-2.04.82-.22022.09-.4502.18-.66992.27-.12012.04-.23047.09-.34033.13-.31006.11-.61963.23-.91993.34-.35986.13-.71.26-1.06982.39-.29.11-.58008.22-.87012.32-.27.1-.53027.19-.7998.28-.59033.21-1.2002.42-1.81006.62a.36571.36571,0,0,1-.10986.04c-.63038.21-1.25.41-1.89014.61-.3999.13-.81006.26-1.21.38-2.52.78-5.07031,1.48-7.67041,2.11-.58985.14-1.16992.28-1.75977.41-.03027.01-.06006.01-.08984.02-.16992.04-.34033.08-.52.12-.48.11-.96.21-1.43994.31-.19043.04-.39014.09-.59033.13-.06006.00995-.12989.03-.19971.04-.40039.08-.80029.16-1.21.24-.4502.09-.90039.18-1.34033.26-.56983.11-1.12989.21-1.69.3-.0498.01-.10009.02-.16992.03-1.06982.18-2.14013.35-3.21972.51-1.02051.15-2.04.29-3.06055.41-.10986.01-.22949.03-.34961.04-.07031.01-.15039.02-.22022.03-.77978.1-1.58007.19-2.36962.27a135.296,135.296,0,0,1-18.28028.58c-2.35986-.08-4.75-.23-7.14013-.44-.61963-.05-1.23975-.11-1.85987-.17-.41015-.05-.81006-.09-1.21-.13-.39014-.05-.78027-.09-1.16992-.14-.07031-.01-.15039-.02-.22022-.03-.40966-.04-.81982-.1-1.21972-.15-.31006-.04-.61035-.08-.93018-.12-.5-.07-.99023-.14-1.48-.22-.37988-.05-.75-.1-1.12012-.16-.73974-.12-1.48974-.24-2.23-.37-.33007-.06-.63964-.12-.98-.18a.49386.49386,0,0,1-.15966-.03c-.51026-.09-1.02051-.19-1.53028-.28q-.81006-.165-1.62012-.33c-.4497-.09-.8999-.19-1.3496-.29-.62012-.13-1.24024-.28-1.86036-.42q-1.59007-.375-3.17968-.78c-.59034-.15-1.17041-.31-1.77051-.47-.10986-.03-.22949-.06005-.33985-.09-.33007-.09-.6499-.18-.98-.28-.54-.15-1.10009-.31-1.6499-.47-.31982-.1-.64013-.19-.96-.3q-.68994-.195-1.37988-.42c-.69043-.22-1.37988-.45-2.08008-.68-.03027-.00995-.0498-.01995-.08984-.03-.75-.24-1.5-.5-2.24024-.77-.56982-.2-1.12988-.41-1.70019-.63-.18994-.07-.39991-.15-.60987-.22-3.77-1.43-7.47021-3.01-11.06982-4.75-.05029-.03-.11035-.05-.16016-.08-.29-.14-.58008-.29-.87011-.43-1.04-.51-2.05957-1.04-3.08008-1.57-1.93994-1.02-3.85987-2.09-5.72949-3.2-1.89014-1.12-3.74024-2.27-5.56055-3.47-.75-.49-1.48975-1-2.22949-1.51-1.0503-.72-2.09034-1.46-3.13037-2.22-.32959-.24-.66993-.49-1-.75-1.40967-1.04-2.79-2.12-4.15967-3.22-.59033-.47-1.19043-.96-1.78028-1.45-.50976-.42-1.00976-.85-1.50976-1.28-.21-.18-.41016-.35-.61035-.53-.33008-.29-.66993-.58-1-.88-.43994-.39-.87989-.78-1.30957-1.19-.19043-.16-.38037-.33-.56006-.5l-.01026-.01c-.58984-.54-1.16992-1.09-1.73974-1.63995-.13037-.12-.25-.24-.36035-.36005-.56983-.53-1.11963-1.06995-1.66993-1.62-.41992-.42-.85009-.86-1.27-1.29l-.29-.29c-.15967-.16-.30957-.32-.46973-.49-.41016-.42-.82031-.85-1.21-1.28-.48-.51-.96-1.03-1.43018-1.55-.47021-.52-.93994-1.04-1.3999-1.57-.36035-.4-.7002-.8-1.0498-1.2-.52051-.6-1.03028-1.21-1.54-1.82-.07032-.09-.15039-.18-.23047-.28-.6499-.78-1.27979-1.57-1.8999-2.37-.10987-.13-.21973-.27-.31983-.4-.57031-.72-1.12012-1.44-1.66016-2.17-.62988-.84-1.25-1.69-1.8496-2.54-.06055-.06-.1001-.13-.1504-.19-.5996-.86-1.1997-1.72-1.79-2.6-.30957-.45-.60987-.9-.91993-1.36-.2998-.46-.60009-.92-.88964-1.38-.61036-.95-1.21045-1.9-1.8003-2.87-.5-.82-.98974-1.64-1.47021-2.48-1.54-2.66-2.97949-5.37-4.34961-8.13-.05029-.13-.11035-.25-.16992-.37-.25-.51-.5-1.03-.74024-1.54-.83008-1.76-1.62988-3.55-2.37988-5.35q-1.48536-3.51-2.76025-7.13a132.92608,132.92608,0,0,1-4.91993-17.63,135.57788,135.57788,0,0,1-2.4497-17.78c-.0503-.78-.1001-1.56-.13037-2.34,0-.04-.02-.09-.02-.13-.02-.61-.05957-1.22-.08008-1.83-.04-1.17-.06983-2.35-.07959-3.54-.03028-2.35.00976-4.72.1001-7.1.03955-.88.07959-1.75.12988-2.63.05957-.97.12988-1.95.21-2.93.02-.27.04-.53.06006-.8.02978-.27.0498-.54.07959-.81.03027-.37.07031-.74.1001-1.12.07031-.72.1499-1.44.25-2.16q.07543-.82506.21-1.65.07543-.795.21045-1.59c.07959-.6.15966-1.2.25976-1.8.08008-.55.16992-1.1.27979-1.65.18994-1.24.42041-2.47.66015-3.7.12989-.58.23975-1.17.35987-1.76q.87011-4.14,1.99023-8.18.3003-1.09506.62988-2.19c.16016-.57.33008-1.13.50977-1.69.15039-.5.31055-.99.47021-1.49.04-.13.09034-.27.12989-.4.16015-.49.32031-.98.5-1.47.13037-.41.27-.82.41015-1.23.22022-.62.43994-1.25.66992-1.87.03028-.07.0503-.15.08008-.22.43018-1.18.87989-2.34,1.33985-3.5q.43506-1.09506.8999-2.19c.21045-.51.43017-1.03.66015-1.54.16993-.4.3501-.8.53028-1.19995.5498-1.24005,1.12988-2.47,1.71972-3.69.23-.47.4502-.93.69-1.39q2.79052-5.625,6.09033-10.93c.44971-.71.87988-1.41,1.33984-2.11.41016-.64.83985-1.28,1.25977-1.92.5-.74,1.02051-1.48,1.52051-2.21.2998-.44.60986-.87.91992-1.30005.73974-1.04,1.5-2.06,2.27978-3.08.35987-.48.73-.95,1.1001-1.42.12012-.16.25-.31995.37012-.47.43994-.55.86963-1.1,1.33008-1.64.55957-.7,1.12988-1.39,1.71972-2.08.23-.28.46973-.56.71-.83.54981-.63,1.10987-1.26,1.66016-1.89.44971-.51.91016-1.01,1.37988-1.51.3999-.43.79-.85,1.18994-1.27A134.39117,134.39117,0,0,1,94.395,71.3061c.31-.27.63037-.54.96-.8.87011-.72,1.76025-1.43,2.6499-2.12.8501-.67,1.71045-1.32,2.58008-1.96.06006-.05.12011-.09.18017-.14.89014-.66,1.8003-1.31,2.71-1.94.91993-.65,1.85987-1.29,2.8003-1.92.46-.3.90966-.6,1.36963-.9.29-.19.59033-.38.89013-.57.41016-.26.81983-.52,1.24024-.78.2998-.19.61963-.38.90966-.56.51026-.31,1.03028-.62,1.54-.93.52-.3,1.04-.61,1.56006-.91.46-.27.93018-.53,1.3999-.79.47022-.26.94-.52,1.41993-.78.93017-.51,1.88037-1,2.82031-1.49.02978-.01.0498-.03.07959-.04.3501-.18.68017-.35,1.03027-.52,1.00977-.51,2.03028-1,3.04-1.48a.48148.48148,0,0,0,.1001-.05c.98974-.46,1.98-.91,2.98-1.35.5498-.24,1.10986-.48,1.66016-.72a.77925.77925,0,0,0,.15966-.07c1.06006-.44,2.12989-.88,3.2002-1.3.56006-.22,1.11963-.44,1.68994-.65q5.23463-1.98,10.66992-3.52c.71-.21,1.41992-.4,2.14014-.59q5.2046-1.395,10.56982-2.37a134.68453,134.68453,0,0,1,24.04-2.16c2.87988,0,5.78028.1,8.68994.28q2.5503.165,5.1001.42c.46973.05.92969.1,1.3999.16a134.44885,134.44885,0,0,1,50.66993,16.19c.26025.14.52.29.78027.44,1.98974,1.12,3.93994,2.3,5.85986,3.52a133.48281,133.48281,0,0,1,11.37988,8.09q4.78492,3.795,9.18995,7.99a134.88633,134.88633,0,0,1,14.51025,16.18c1.21973,1.61,2.3999,3.23,3.54,4.88,1.46973,2.12,2.87012,4.28,4.21973,6.48A134.34755,134.34755,0,0,1,315.2153,188.52607Z"/><rect class="cls-4" x="106.85718" y="240.83492" width="65.30022" height="8.99947" transform="translate(-140.58973 210.73641) rotate(-53.33403)"/><path class="cls-5" d="M208.395,279.8061v27.27c-.06006.00995-.12989.03-.19971.04-.40039.08-.80029.16-1.21.24-.4502.09-.90039.18-1.34033.26-.56983.11-1.12989.21-1.69.3-.0498.01-.10009.02-.16992.03-1.06982.18-2.14013.35-3.21972.51-1.02051.15-2.04.29-3.06055.41-.10986.01-.22949.03-.34961.04-.07031.01-.15039.02-.22022.03-.77978.1-1.58007.19-2.36962.27a135.296,135.296,0,0,1-18.28028.58c-2.35986-.08-4.75-.23-7.14013-.44-.61963-.05-1.23975-.11-1.85987-.17-.41015-.05-.81006-.09-1.21-.13-.39014-.05-.78027-.09-1.16992-.14-.07031-.01-.15039-.02-.22022-.03-.40966-.04-.81982-.1-1.21972-.15-.31006-.04-.61035-.08-.93018-.12-.5-.07-.99023-.14-1.48-.22-.37988-.05-.75-.1-1.12012-.16-.73974-.12-1.48974-.24-2.23-.37-.33007-.06-.63964-.12-.98-.18a.49386.49386,0,0,1-.15966-.03c-.51026-.09-1.02051-.19-1.53028-.28q-.81006-.165-1.62012-.33c-.4497-.09-.8999-.19-1.3496-.29l2.96972-26.94Z"/><path class="cls-6" d="M237.7529,260.41132a33.61791,33.61791,0,0,1-17.8125-4.60059c-12.53809-7.687-18.22266-24.38379-16.89844-49.62744l8.36914.43946c-1.15039,21.92919,3.1875,36.07177,12.89551,42.03466,16.41308,10.08155,43.88281-5.47461,44.1582-5.63281l4.18457,7.26123C271.69528,250.83612,254.83,260.41132,237.7529,260.41132Z"/><polygon class="cls-7" points="185.807 286.247 185.807 294.186 198.807 294.287 198.246 285.585 185.807 286.247"/><path class="cls-8" d="M162.20281,207.748a575.64792,575.64792,0,0,0-16.20621,80.19691q32.38306-.34449,64.76614-.6889a362.48318,362.48318,0,0,1-2.07047-66.80177Q185.362,214.41974,162.20281,207.748Z"/><path class="cls-9" d="M209.27509,273.00585q-29.987-.75333-59.9741-1.50658c.05243-.48268.079-.72394.13276-1.20642q29.88521.83055,59.77042,1.66114C209.232,272.37476,209.24613,272.58512,209.27509,273.00585Z"/><path class="cls-9" d="M153.00461,287.89887c-.46756-.01748-.70126-.02626-1.16868-.04383.71528-6.77325,1.13274-10.1475,2.08534-16.86665.44544.03428.66817.0514,1.11375.08556C154.1047,277.777,153.69824,281.14291,153.00461,287.89887Z"/><path class="cls-9" d="M161.60076,287.77931l-1.17312.01249c.25656-6.64253.45019-9.95938.96727-16.57762l1.12024.02965C162.01953,277.84579,161.83648,281.15418,161.60076,287.77931Z"/><path class="cls-9" d="M170.00343,287.68992l-1.17314.01249c.10733-6.51785.22516-9.77432.58855-16.27593l1.12027.0296C170.19716,277.94143,170.08992,281.18947,170.00343,287.68992Z"/><path class="cls-9" d="M178.96639,287.6023c-.46932-.00117-.704-.00177-1.17328-.003.044-6.38588.12685-9.57668.41351-15.9481.4479.018.67185.02707,1.11981.04508C179.06148,278.05148,178.98934,281.23383,178.96639,287.6023Z"/><path class="cls-9" d="M187.95441,287.499l-1.17313.01249c-.21153-6.25149-.25562-9.37909-.22057-15.63151.4481.01184.67216.01777,1.12025.02965C187.66739,278.14574,187.72205,281.26488,187.95441,287.499Z"/><path class="cls-9" d="M195.02069,287.42381l-1.17313.01248c-.33706-6.14667-.44488-9.22347-.5391-15.37784.44812.01188.67216.0178,1.12027.02965C194.54441,278.22615,194.6628,281.29457,195.02069,287.42381Z"/><path class="cls-9" d="M203.61416,287.3324l-1.17315.01249c-.48969-6.01918-.675-9.03426-.92644-15.06931l1.12025.02961C202.9077,278.324,203.10362,281.33067,203.61416,287.3324Z"/><path class="cls-9" d="M209.55843,264.50148l-17.72-.83227c.88659-14.29743,2.20518-28.215,4.02-42.42445,5.40186-.59214,8.06835-.86744,13.33132-1.37872C208.70038,234.93293,208.81829,249.44514,209.55843,264.50148Zm-16.58249-1.8732c6.16891.30648,9.25342.45976,15.42233.76628a326.66733,326.66733,0,0,1-.20486-42.35173c-4.55681.4557-6.86109.69826-11.52068,1.21426A387.61181,387.61181,0,0,0,192.97594,262.62828Z"/><path class="cls-10" d="M159.00372,219.14454c12.07578,12.716,32.58345,17.67781,49.27179,11.83477.1048-4.20847.1881-6.314.41676-10.52506Q183.85891,219.447,159.00372,219.14454Z"/><path class="cls-10" d="M152.55256,229.46819s24.58772,16.76327,54.70393,4.39284l-.22522-10.38879Z"/><polygon class="cls-11" points="105.596 106.852 131.643 71.55 84.675 61.037 80.509 68.736 89.575 94.5 98.321 105.805 105.596 106.852"/><polygon class="cls-11" points="229.594 86.867 192.699 63.129 232.863 36.607 239.493 42.323 240.178 69.627 236.021 83.303 229.594 86.867"/><path class="cls-11" d="M108.02315,142.45629s6.698-26.82124,22.26544-5.88574c0,0-13.75621-14.64819-22.61714,10.10507"/><path class="cls-8" d="M202.10828,27.42183,171.64211,39.15312,157.28188,11.34431l-10.84106,4.05548a4.95888,4.95888,0,1,0-8.74225,3.27038l-15.53388,5.811,10.74553,29.58607.99275,4.15795,70.431-21.23991Z"/><path class="cls-12" d="M271.31036,250.55482c1.60783,2.88538,4.48309,7.86109,8.30322,7.82567,7.36891-.049-.5289-9.5523-2.6789-12.39354a88.14754,88.14754,0,0,0,10.82893,8.2134,26.30671,26.30671,0,0,0,6.54312,3.22479c1.70441.47422,5.88367,1.16781,6.54175-1.27806.65332-2.42824-3.41228-5.22605-5.07828-6.37855a24.20151,24.20151,0,0,0-16.66565-3.95738c4.2624-.61635,8.51351-1.33356,12.71227-2.2981a62.4528,62.4528,0,0,0,7.88474-2.26171c1.97823-.73881,4.965-1.72526,5.95239-3.82453,2.785-5.92472-11.04442-3.17386-13.21007-2.74974-8.48858,1.66238-14.35354,4.88186-21.68215,9.34279l-.51961.31628c-2.2186-3.65827-8.94333-15.44969-14.47917-13.08212-7.09466,3.31643,8.401,15.49381,13.08043,15.93691Z"/><rect class="cls-11" x="241.9128" y="274.13882" width="61.06184" height="43.47065" rx="4.42553" transform="translate(68.03658 -50.51409) rotate(12.09389)"/><path class="cls-13" d="M271.52378,299.09913a2.87746,2.87746,0,0,1-1.967-1.0992L251.65,271.52436l49.35394,10.65114-27.20723,16.62395A2.9517,2.9517,0,0,1,271.52378,299.09913Z"/><path class="cls-13" d="M267.99745,299.0868a4.7462,4.7462,0,0,0,6.745,1.48844l3.4737-2.27621,14.69948,21.85046-49.55148-10.69378,22.40358-13.83679Z"/><polygon class="cls-13" points="241.658 307.593 249.389 271.77 263.973 293.663 241.658 307.593"/><polygon class="cls-13" points="303.394 283.425 295.663 319.248 281.072 297.353 303.394 283.425"/><rect class="cls-11" x="292.07702" y="154.02674" width="66.18362" height="47.1169" rx="4.79674" transform="matrix(0.94354, -0.33127, 0.33127, 0.94354, -40.46838, 117.74627)"/><path class="cls-14" d="M326.14137,181.0876a3.11879,3.11879,0,0,1-2.44044.09556l-31.52739-14.35968,51.66185-18.05279-15.76154,30.75476A3.19928,3.19928,0,0,1,326.14137,181.0876Z"/><path class="cls-14" d="M322.87342,183.06981a5.1443,5.1443,0,0,0,7.07893-2.43685l1.92545-4.0688L357.82443,188.46,305.9558,206.585l12.89508-25.46156Z"/><polygon class="cls-14" points="303.324 205.827 290.221 168.329 316.085 180.329 303.324 205.827"/><polygon class="cls-14" points="346.753 148.575 359.856 186.073 333.984 174.075 346.753 148.575"/><rect class="cls-11" x="9.70541" y="59.92932" width="50.48338" height="35.93972" rx="3.65885" transform="translate(26.74604 -7.08508) rotate(18.64991)"/><path class="cls-15" d="M33.88708,80.4612a2.379,2.379,0,0,1-1.51184-1.08852L20.16664,55.93662,59.69818,69.34371,35.78226,80.4296A2.44037,2.44037,0,0,1,33.88708,80.4612Z"/><path class="cls-15" d="M30.99189,80.11819a4.3782,4.3782,0,0,0,2.30077,2.09562,4.35226,4.35226,0,0,0,3.09873-.23639l3.068-1.54166L49.47026,99.77022,9.7805,86.30946l19.70734-9.25009Z"/><polygon class="cls-15" points="8.555 84.618 18.286 55.925 28.198 75.283 8.555 84.618"/><polygon class="cls-15" points="61.544 70.596 51.812 99.289 41.894 79.928 61.544 70.596"/><rect class="cls-4" x="129.74591" y="253.35358" width="86.72978" height="9.00025" transform="translate(-133.71633 209.76011) rotate(-47.21611)"/><path class="cls-8" d="M174.12594,272.93378c-37.94043-7.38135-55.90137-16.76025-56.52637-29.5166-.49414-10.09277,10.21094-20.01611,32.72852-30.33691A271.171,271.171,0,0,1,181.88082,201.152l2.39747,8.03028c-24.541,7.33056-58.85645,22.67138-58.3086,33.82568.17969,3.64844,5.38672,13.06689,49.75586,21.69922Z"/><path class="cls-16" d="M283.01809,149.78129s-3.16318-19.33028-23.74462-31.11841c0,0,8.3527-.5725,10.85235.99209a44.45077,44.45077,0,0,0-22.20133-13.80971L242.528,80.42458l10.95144,2.699s-.90813-4.13483-11.62727-9.18062c6.50462-14.44446,1.10759-39.9606,1.10759-39.9606-34.36162-1.33388-45.55347,17.16376-48.198,22.93265a157.29417,157.29417,0,0,0-30.74766,5.9297s6.99053-7.11733,15.02186-8.75523a48.36879,48.36879,0,0,0-38.17988,14.73974S105.99436,48.02877,74.71541,59.6729c0,0-1.8641,16.23464,21.90528,54.4482,0,0-21.12685,16.156-25.36093,34.02368,0,0,11.08889-16.56854,18.11771-20.54312,0,0-26.8459,33.2333-13.01,56.48671,0,0-.67828-12.976,2.66248-18.54326-.04491,4.71556.244,37.81546,16.8149,53.03737,0,0-5.55879-15.579-5.73681-22.73036,0,0,6.93775,29.422,49.92065,38.00891a51.565,51.565,0,0,1-19.51806-16.3896s54.6083,30.26052,95.84219,6.00788l-.02426-.00707c.3223-.18292.64741-.36834.99328-.57839,4.97141-3.01839,12.26408-8.905,18.42812-19.71309,0,0-2.38846,12.30376-4.25316,14.21558,0,0,15.79114-10.9208,19.11665-24.857,0,0-1.72965,12.49307-2.81662,14.94554,0,0,17.22907-15.60063,22.01235-36.161,0,0,.157,7.29286-.64021,8.69075,0,0,18.84845-9.52134,5.82117-35.35775A12.12586,12.12586,0,0,1,283.01809,149.78129ZM234.0696,43.56344s5.27568,23.86369-3.26,33.11449c0,0-17.62126-13.41937-24.46093-15.87609C203.39786,59.74185,214.77312,45.0814,234.0696,43.56344ZM86.48461,68.0781c15.8-6.09162,38.44277,8.78424,38.44277,8.78424-11.913,7.94605-21.0488,22.231-21.0488,22.231C92.43757,89.93381,86.48461,68.0781,86.48461,68.0781Zm-6.62238,96.31825s-.01723.21129-.04.57877q-.22852-.00405-.39235-.007A6.55509,6.55509,0,0,1,79.86223,164.39635Z"/><path class="cls-11" d="M218.44745,147.97058c-11.71467,4.8434,15.308,12.94163,15.308,12.94163s6.10445-8.27574,7.77777-15.59229C243.20535,138,230.16021,143.12538,218.44745,147.97058Z"/><path class="cls-11" d="M155.38772,193.75776c16.50164,8.11759,37.08445,8.04528,61.27688-.23331a.97324.97324,0,0,0-.63022-1.84163c-25.84381,8.8431-47.4042,8.15972-64.08116-2.03387-25.94666-15.85825-31.12371-49.70133-31.17312-50.04135a.97333.97333,0,0,0-1.92658.279c.05044.34905,5.36651,35.09357,32.08435,51.42309Q153.11092,192.63791,155.38772,193.75776Z"/><path class="cls-11" d="M191.25847,157.28448c-14.60483,2.18646-29.42168-7.13168-32.06479-24.78819-2.64221-17.65744,5.37373-44.96744,19.9781-47.15333,14.60415-2.1857,30.26649,21.58,32.91023,39.23635C214.72369,142.23569,205.86164,155.09829,191.25847,157.28448Z"/><path class="cls-12" d="M167.4613,269.80467c-.22483,3.29545-.52651,9.03424,2.6955,11.08688,6.2046,3.97569,4.76348-8.29672,4.50971-11.85069a88.148,88.148,0,0,0,4.60164,12.78868,26.307,26.307,0,0,0,3.72778,6.2702c1.17044,1.32664,4.29617,4.18621,6.18111,2.49436,1.87134-1.67965-.0121-6.24139-.78061-8.11575a24.2015,24.2015,0,0,0-11.81493-12.4021c3.90946,1.80667,7.86443,3.52263,11.91034,5.0027a62.45315,62.45315,0,0,0,7.84321,2.40175c2.06122.45892,5.10295,1.26,7.07506.03822,5.56438-3.44907-7.52931-8.68112-9.57613-9.506-8.02277-3.23336-14.69473-3.73118-23.27048-3.986l-.608-.01807c.13408-4.27634.92366-17.82759-5.008-18.86022-7.75575-1.08684-1.40238,17.56895,2.27921,20.49116Z"/><path class="cls-16" d="M191.112,124.66123a4.84487,4.84487,0,0,0-1.86767-.04162c-6.53041,1.14587-8.46158,15.89373-8.661,17.57166a.92691.92691,0,0,0,1.84093.21818c.49579-4.17947,2.74678-15.19446,7.14064-15.96486,2.14992-.37307,5.937,1.61495,11.77972,13.25285a.92682.92682,0,0,0,1.6568-.83128C198.60476,130.10963,194.69418,125.42879,191.112,124.66123Z"/><path class="cls-11" d="M229.97118,120.20533a4.24576,4.24576,0,0,0-1.63672-.03647c-5.7229,1.00418-7.41527,13.92839-7.59005,15.39883a.8123.8123,0,0,0,1.6133.19121c.43448-3.66266,2.40712-13.3156,6.25766-13.99074,1.88407-.32693,5.20287,1.41526,10.3231,11.61408a.81222.81222,0,0,0,1.45193-.72849C236.53746,124.98,233.11045,120.878,229.97118,120.20533Z"/><rect class="cls-4" x="70.93171" y="271.95063" width="81.06369" height="58.77204" transform="translate(183.39827 -11.79798) rotate(33.23706)"/><polygon class="cls-17" points="107.728 307.045 107.467 306.269 92.042 260.408 93.987 259.754 109.15 304.84 156.211 300.094 156.416 302.135 107.728 307.045"/></g></g></svg>